<?xml version="1.0" encoding="UTF-8"?>
<svg version="1.0" viewBox="0 0 547.58 780.98" xmlns="http://www.w3.org/2000/svg">
 <g transform="translate(-108.72 -115.73)">
  <path d="m408.67 896.21c-0.63723-0.61761-5.0988-1.5259-9.9145-2.0185-4.8158-0.49258-13.217-1.4218-18.67-2.065-5.453-0.64318-13.038-1.457-16.855-1.8086-20.86-1.921-58.966-13.105-70.102-20.576-4.3131-2.8932-6.0217-3.2294-7.188-1.4146-1.0861 1.69-1.9236 1.7684-2.8864 0.27025-0.74599-1.1608-0.78424-3.0007-0.08503-4.0887 0.69922-1.088-1.458-4.6627-4.7938-7.9439-7.5139-7.3909-27.992-39.727-42.022-66.354-5.8023-11.012-12.646-22.997-15.207-26.633-12.988-18.433-28.958-62.647-34.787-96.314l-2.6333-15.207-8.7969-2.4172c-10.201-2.803-24.65-16.604-26.678-25.482-0.69671-3.0505-2.6175-6.2734-4.2684-7.1618-2.6292-1.415-2.6809-3.451-0.41693-16.408 2.3718-13.574 2.2849-15.288-1.055-20.802-2.0019-3.305-7.6111-13.303-12.465-22.218-8.756-16.082-8.8152-16.32-7.5632-30.457 0.69402-7.8366 2.1589-15.288 3.2553-16.558 3.5267-4.0865-0.22413-29.422-5.3201-35.935-2.4618-3.1464-5.8394-11.298-7.5057-18.116-5.0761-20.766-5.2055-25.167-0.93918-31.929 3.3824-5.3608 4.4444-5.9065 7.9667-4.0936 3.1111 1.6012 4.4628 1.4866 5.7644-0.48885 1.2545-1.9039 1.7083-1.9555 1.7307-0.19689 0.01669 1.311 0.69959 2.282 1.5175 2.1578 0.81795-0.1242 1.9333-0.06043 2.4786 0.1417 8.0279 2.9758 8.9132 1.9751 9.704-10.969 0.94232-15.424 0.88144-18.518-0.88148-44.803-1.0276-15.321-0.57007-25.064 1.7909-38.138 1.7441-9.6578 3.6978-20.873 4.3416-24.922 0.73568-4.6278 2.4106-7.6842 4.5094-8.2287 1.8364-0.47648 6.4274-5.2092 10.202-10.517 3.7748-5.308 9.3517-11.42 12.393-13.583 3.0414-2.1624 5.5299-4.9594 5.5299-6.2155 0-6.0214 9.7915-18.838 19.333-25.307 4.0818-2.7672 6.4444-5.9749 6.4444-8.7492 0-5.5046 6.2469-13.232 16.435-20.329 4.8072-3.3489 9.6319-9.1262 12.373-14.816 2.4714-5.1299 5.4775-9.9119 6.6802-10.627 1.2027-0.7148 2.191-2.7507 2.1962-4.5242 0.01454-4.9514 12.843-17.264 22.277-21.383 4.6465-2.0282 12.017-3.7182 16.38-3.7556 11.118-0.09521 17.264-1.9607 16.097-4.8858-1.0837-2.7158 12.942-5.8978 16.549-3.7544 1.1306 0.67197 2.0557 0.31304 2.0557-0.79766s1.7846-0.30324 3.9658 1.7944c2.1812 2.0976 4.8581 3.8138 5.9487 3.8138s1.9829 1.3378 1.9829 2.9729 0.8923 2.4426 1.9829 1.7944 1.9829-0.47926 1.9829 0.37541c0 0.85468 2.9 2.6911 6.4444 4.081 12.307 4.8261 22.346 10.61 29.248 16.853 4.4441 4.0194 8.1882 5.8994 10.41 5.227 2.4896-0.75331 3.4701-0.00206 3.4701 2.6589 0 2.0399 1.5615 4.8452 3.4701 6.234 2.9521 2.1482 3.1001 2.1262 0.99146-0.1479-1.3632-1.4702-2.4515-4.0031-2.4183-5.6287 0.0492-2.4112 0.43694-2.3336 2.1048 0.42148 1.1245 1.8575 3.0198 2.7975 4.2119 2.089 1.3475-0.80087 1.5967-0.40011 0.6587 1.0594-0.8931 1.3897 0.17703 3.8579 2.6226 6.049 9.1164 8.1677 25.209 35.302 29.557 49.836 5.9069 19.747 5.4238 21.853-1.8685 8.1446-7.0157-13.188-15.116-23.312-33.321-41.643-12.399-12.486-33.223-27.959-37.627-27.959-1.1504 0-2.0917-0.8581-2.0917-1.9069s-1.3385-1.9069-2.9744-1.9069-2.9744-0.90075-2.9744-2.0017c0-1.3066-1.145-1.3854-3.2974-0.22709-2.1822 1.1744-5.5353 0.87534-9.9145-0.88429-3.6394-1.4624-6.6172-2.2395-6.6172-1.727s-2.2308 0.11621-4.9573-0.88067c-3.6137-1.3213-4.9655-1.1793-4.9876 0.52392-0.02292 1.7636-0.39448 1.7859-1.5154 0.09098-4.1712-6.3072-43.743-2.7437-56.995 5.1324-7.4782 4.4447-16.81 14.981-16.81 18.979 0 1.9501 0.59435 1.9628 2.9744 0.06324 1.6359-1.3056 2.9744-1.8096 2.9744-1.1198 0 0.6897 1.5672 0.44741 3.4828-0.53844 1.9155-0.98587 8.2838-2.3066 14.152-2.9349 8.0131-0.85807 11.218-0.46084 12.876 1.5957 1.214 1.506 6.2226 3.1118 11.13 3.5684 4.9077 0.45662 7.3615 0.45529 5.453-0.00296s-3.4701-1.519-3.4701-2.3573c0-1.9033 15.633-0.31151 20.325 2.0696 2.2493 1.1414 3.4701 1.0664 3.4701-0.21312 0-1.0857-0.89986-1.974-1.9997-1.974-1.194 0-1.0146-1.517 0.44528-3.765 2.0504-3.1573 2.7091-3.3112 4.0812-0.95345 1.9977 3.4329 6.692 3.6822 8.0575 0.42793 0.61581-1.4676 1.0603-1.1445 1.1567 0.84091 0.0861 1.7735 1.2005 3.845 2.4764 4.6034 1.5475 0.91976 1.9092 0.34966 1.0864-1.7125-1.0569-2.6488-0.46653-2.8109 4.1246-1.1328 9.8414 3.5972 27.108 13.745 32.623 19.173 3.0055 2.9581 5.453 4.2401 5.453 2.8563 0-1.3808-2.2308-4.526-4.9573-6.9892-6.8779-6.2138-6.2184-8.7509 0.99146-3.8138 3.2718 2.2404 5.9242 3.3715 5.8941 2.5135-0.03002-0.85802-3.2064-3.7053-7.0586-6.3273-9.384-6.3872-12.716-9.4403-12.716-11.652 0-1.0148 1.9419-0.10517 4.3154 2.0213 2.3734 2.1264 5.9427 4.363 7.9316 4.97 1.9889 0.60707 3.6162 1.811 3.6162 2.6754s2.1758 2.0968 4.8351 2.7387c6.2654 1.5122 32.184 26.139 41.477 39.41 6.871 9.8118 9.4388 16.677 5.3227 14.231-1.1138-0.66199-1.0187 1.3094 0.22927 4.7521 1.173 3.2358 1.5834 6.4116 0.91198 7.0573-0.6714 0.64566-1.2207 0.13618-1.2207-1.1322 0-3.1422-15.495-23.103-18.914-24.365-1.5111-0.55762-3.2918-2.6633-3.9571-4.6792-0.66532-2.0159-1.9735-3.2114-2.9071-2.6565-0.93356 0.55485-2.2679-0.71984-2.9652-2.8327s-2.0923-3.8415-3.0999-3.8415-4.3902-2.5743-7.517-5.7207c-7.1547-7.1998-8.4709-7.2124-5.6613-0.05412 1.4026 3.5735 2.7535 4.8429 3.6573 3.4365 0.88709-1.3803 1.9561-0.2265 2.8055 3.0282 0.9125 3.4963 2.3215 4.908 4.205 4.2129 1.558-0.57495 2.3457-0.28762 1.7505 0.6385-0.59517 0.92611 2.747 5.4214 7.4272 9.9894 4.6801 4.5681 10.231 11.111 12.336 14.541 2.1046 3.4293 4.9167 5.8328 6.2492 5.3411 1.4985-0.55299 1.9863 0.19954 1.2788 1.9726-0.97164 2.435-1.7776 2.3134-5.352-0.80784-2.3144-2.021-5.2402-3.3099-6.5018-2.8642-1.2615 0.44568-3.7154-1.1416-5.453-3.5274s-3.1593-3.4577-3.1593-2.3822 2.7541 5.557 6.1202 9.9588c3.3662 4.4018 5.1228 8.0033 3.9036 8.0033s-2.75-1.3365-3.4018-2.97c-0.66477-1.666-2.4756-2.4937-4.1244-1.8853-1.883 0.6949-2.581 0.18671-1.9421-1.4142 0.54843-1.3744-2.0292-5.7694-5.7279-9.7667-7.2494-7.8345-9.2472-7.6714-2.7863 0.22755 2.1663 2.6485 3.3669 5.7053 2.668 6.7929-0.73596 1.1452-0.30731 1.4047 1.0185 0.61677 1.4295-0.84961 2.2893 0.02665 2.2893 2.3331 0 2.0316 2.0077 4.9918 4.4615 6.5783s3.8085 3.5348 3.0103 4.3297c-1.8476 1.8399-13.317-5.8124-27.301-18.214-24.694-21.901-52.385-36.228-79.316-41.039-3.8171-0.68185-7.8325-1.4497-8.9231-1.7063-1.0906-0.25659-6.0737-1.112-11.074-1.9009-10.967-1.7304-14.714-3.7165-12.756-6.7629 1.576-2.4523 29.266-2.3357 34.735 0.14632 1.6359 0.74239 6.8596 2.3495 11.608 3.5712 4.7486 1.2218 10.026 2.7351 11.727 3.363 1.8787 0.69329 2.5871 0.35388 1.8041-0.86444-1.6568-2.578-31.116-14.027-37.948-14.748-2.8635-0.30228-6.2988-1.9864-7.634-3.7424-2.2446-2.952-2.7548-2.8997-6.7649 0.69316-2.3855 2.1373-8.4915 5.2422-13.569 6.9-10.338 3.3753-37.603 19.513-35.837 21.211 0.62638 0.60237 3.3314-0.2863 6.0111-1.9748 5.0869-3.2053 26.978-7.3564 26.978-5.1158 0 0.70839 2.6769 0.91014 5.9487 0.44835 3.2718-0.4618 5.9487-0.40674 5.9487 0.12233 0 0.52905-9.3692 4.6622-20.821 9.1848-11.451 4.5226-20.821 8.9573-20.821 9.855s-0.8923 1.1018-1.9829 0.45363c-1.0906-0.64819-1.9829-0.26978-1.9829 0.84091 0 1.1107-1.1764 2.0194-2.6142 2.0194s-6.1224 3.0027-10.41 6.6727c-5.5749 4.7716-6.8075 6.6731-4.326 6.6742 1.9086 8.2e-4 3.4701-0.85662 3.4701-1.9054s1.3665-1.9069 3.0366-1.9069 3.5482-1.2822 4.1736-2.8494c0.62534-1.5672 1.8347-2.4347 2.6874-1.9279 0.85275 0.50684 2.6531-0.35621 4.0008-1.9178 1.3477-1.5617 3.3717-2.8394 4.4978-2.8394s0.4133 1.7365-1.584 3.8589c-2.6868 2.8551-3.052 4.4161-1.4039 6.001 1.6481 1.585 3.3374 0.33316 6.4943-4.8123 6.4563-10.523 6.878-8.3272 0.51937 2.7045-3.0621 5.3124-9.8642 13.551-15.116 18.309-5.2517 4.7573-9.1973 8.9875-8.768 9.4003 0.42926 0.41282 5.3953-3.7107 11.036-9.1634 5.6404-5.4527 10.255-8.8301 10.255-7.5053 0 1.4391 0.99772 1.8174 2.4786 0.9397 2.869-1.7003-3.2291 7.9569-8.6898 13.762-4.3124 4.5841-5.3797 10.381-1.1436 6.2108 1.4079-1.3859 4.0848-4.6415 5.9487-7.2347s3.389-3.8325 3.389-2.7541c0 8.5057-35.605 39.159-46.078 39.67-4.3408 0.21174-7.2969 4.2759-10.47 14.394-1.2794 4.0796-0.16173 3.6062 9.2042-3.8985 5.8632-4.6981 13.875-10.811 17.804-13.584 3.9288-2.773 12.183-9.9268 18.342-15.897 12.215-11.841 14.638-12.22 5.2499-0.82093-3.2718 3.9726-5.9487 7.934-5.9487 8.8031 0 0.86904 1.3891-0.32709 3.0868-2.658 1.6978-2.331 3.9714-4.2381 5.0525-4.2381 3.837 0-10.382 17.152-22.458 27.093-19.544 16.086-28.164 24.709-34.393 34.402-3.2 4.9799-6.4874 9.0559-7.3054 9.0578-0.81795 0.00188-1.4872 2.2817-1.4872 5.0662 0 4.8309 0.17043 4.9145 3.7208 1.8246 4.9709-4.3262 5.8299-1.8187 5.2162 15.227-0.47536 13.204-3.5811 26.105-7.4 30.738-1.0516 1.2757-1.5251 3.421-1.0522 4.7673s2.075-0.77016 3.5602-4.7032c1.4852-3.933 3.4134-7.1509 4.285-7.1509 0.8715 0 1.5846-0.94289 1.5846-2.0953s2.6769-4.5001 5.9487-7.4392c3.2718-2.9392 5.9487-5.6941 5.9487-6.1221 0-0.42797 4.5306-5.2984 10.068-10.823 6.2095-6.1954 9.638-11.123 8.9458-12.858-0.62126-1.5569-0.26083-2.3005 0.80736-1.6656 1.0613 0.63079 3.6086-1.508 5.6605-4.7529l3.7309-5.8998 1.2327 5.9271c1.8122 8.7137-9.9738 27.854-24.246 39.375-12.766 10.305-18.63 16.702-24.541 26.773-4.2411 7.226-4.3289 9.5377-0.50181 13.218 3.0291 2.913 10.912 1.982 10.912-1.2887 0-0.94522-1.3385-1.2246-2.9744-0.62095-5.1348 1.8949-3.2092-1.9689 3.4577-6.938 11.477-8.5542 29.063-29.429 26.703-31.698-0.52603-0.50586-2.9677 2.2099-5.426 6.035-5.1497 8.0131-13.147 16.129-15.894 16.129-2.7675 0 17.676-23.827 20.494-23.887 1.3152-0.02773 3.504-0.72034 4.864-1.5392 1.9131-1.1518 2.0252-0.35715 0.49573 3.5116-2.5797 6.525-2.5044 9.1045 0.21842 7.4862 1.4754-0.87689 1.7593 0.01646 0.86567 2.724-2.9142 8.8298-11.419 20.985-21.921 31.329-10.584 10.425-12.513 15.046-2.9518 7.0716 2.5149-2.0976 5.2408-3.8138 6.0574-3.8138 0.81662 0 3.4136-2.7888 5.7711-6.1974l4.2863-6.1974-0.70282 7.0171c-0.38655 3.8594 0.00299 6.5976 0.86567 6.0849 2.1446-1.2746 1.9756 2.4348-0.29464 6.4696-1.0247 1.8212-2.3353 5.4565-2.9124 8.0785-0.57708 2.622-3.5243 7.314-6.5493 10.427-4.555 4.687-5.6128 5.0966-6.1561 2.3836-0.36079-1.8017-1.929-3.2758-3.485-3.2758-2.6899 0-3.6257-2.1405-3.0298-6.93 0.40674-3.2687-12.012-15.991-14.289-14.637-1.0926 0.64938-1.4614 0.36353-0.8195-0.63519 1.3028-2.0272-1.5298-7.3301-3.952-7.3986-0.85773-0.02422-4.2364-2.4792-7.5082-5.4554-6.9369-6.3102-13.606-9.1498-17.829-7.5914-4.7735 1.7616-3.501 7.0608 3.6334 15.131 17.996 20.357 32.093 44.973 34.616 60.445 1.4322 8.7831 1.1355 11.042-1.9281 14.68-6.1374 7.2888-3.9605 22.114 4.5798 31.191 3.9535 4.2018 11.628 23.851 11.628 29.772 0 7.1598-4.0804 3.4347-7.7944-7.1158-1.936-5.4996-3.8743-10.224-4.3072-10.499-0.43296-0.27482-5.918-4.6149-12.189-9.6445-9.7139-7.7911-11.402-10.089-11.402-15.525 0-4.1103 1.8584-8.5043 5.223-12.35 4.6898-5.3598 5.1168-7.0956 4.1829-17-0.57205-6.0669-1.9717-12.671-3.1102-14.676-1.1386-2.0051-3.2387-6.4344-4.667-9.843-1.4282-3.4086-3.0482-6.1994-3.5999-6.2017-0.55173-0.00237-0.71075 5.9083-0.3534 13.135 0.41939 8.481-0.45934 16.281-2.4786 22-4.4868 12.709-3.9279 18.686 3.0971 33.121 15.276 31.39 24.612 57.315 21.661 60.153-0.96461 0.92763-2.2933-0.10342-3.037-2.3566-2.2851-6.9237-4.6795-4.3496-2.9256 3.1451 1.8929 8.0884 7.1264 18.909 9.9603 20.593 1.0393 0.61773 1.4341 1.832 0.87728 2.6984-1.2592 1.9594 4.6095 4.2877 7.0906 2.813 1.0006-0.59467 3.2805 0.32406 5.0665 2.0416 5.6468 5.4304 6.4681-0.14538 5.3311-36.191-0.93922-29.775-2.2299-41.069-8.0182-70.163-0.88134-4.4299-0.49507-5.0645 2.4265-3.9863 2.9588 1.0919 3.3382 0.38786 2.5552-4.7427-0.50574-3.3137-0.18175-6.0249 0.71996-6.0249 0.90172 0 1.6395 3.4324 1.6395 7.6276s0.94841 7.6276 2.1076 7.6276c1.1592 0 1.8848 1.5017 1.6125 3.3371-0.45967 3.0984 1.7824 27.078 3.3429 35.754 0.37729 2.0976 0.85493 14.969 1.0614 28.604 0.60737 40.1 3.8561 59.984 15.578 95.345 3.4767 10.488 7.0216 21.643 7.8776 24.79 1.6948 6.2293 16.05 35.156 26.496 53.393 11.024 19.245 16.733 30.204 19.371 37.185 1.3872 3.6708 3.5005 7.9613 4.6962 9.5345s3.8731 5.8637 5.9499 9.5345c10.224 18.071 29.738 34.406 45.636 38.202 4.4269 1.0569 11.949 3.6594 16.716 5.7835 4.7669 2.124 9.1227 3.4238 9.6795 2.8883 0.55682-0.53548 2.4566-0.23164 4.2218 0.67519 1.7652 0.90685 6.3324 2.1483 10.15 2.7587 3.8171 0.61048 9.1709 1.5894 11.897 2.1754 2.7265 0.58603 11.862 1.1358 20.302 1.2217 15.569 0.1585 25.217-3.0583 25.372-8.4595 0.037-1.2868 1.7913-5.7721 3.8985-9.9673s3.8566-8.4857 3.8875-9.5345c0.13641-4.6262-4.2635-16.21-5.8082-15.292-0.93849 0.55779-2.043 0.04273-2.4546-1.1446-0.44649-1.2881-7.112-2.4228-16.528-2.8136-8.679-0.36022-16.226-0.78292-16.772-0.93937-0.5453-0.15642-1.6607-0.18279-2.4786-0.0586-0.81795 0.1242-1.4872-0.44495-1.4872-1.2648 0-0.81984-4.0154-2.6308-8.9231-4.0243s-8.9231-3.2971-8.9231-4.2301c0-0.93303-0.92812-1.6964-2.0625-1.6964-2.2674 0-17.702-15.345-17.742-17.639-0.01361-0.7866-1.1401-1.4584-2.5034-1.4929-2.8115-0.07118-17.49-21.563-18.785-27.504-0.80873-3.7101-0.66011-3.6907 3.0981 0.40413 2.7361 2.9812 4.2556 3.5664 4.9514 1.9069 0.69711-1.6627 1.0722-1.5203 1.2276 0.46608 0.37743 4.8231 7.8792 18.499 7.9536 14.5 0.05873-3.1568 0.69633-2.9628 5.0245 1.5284 2.7265 2.8292 4.9573 5.9579 4.9573 6.9526 0 0.99476 0.93125 1.8087 2.0694 1.8087 1.1382 0 4.4237 2.0994 7.3012 4.6652 2.8775 2.5659 5.9616 4.2314 6.8536 3.7013s1.6219-0.11302 1.6219 0.92701c0 1.8964 7.6208 5.1413 10.41 4.4327 0.81795-0.2078 1.4872 0.48029 1.4872 1.5291 0 2.5475 17.524 2.4342 25.978-0.16794 7.6974-2.3695 10.29-3.1012 11.698-3.3012 0.5453-0.0775 4.3376-1.4854 8.4274-3.1287 4.0897-1.6433 7.4359-2.5863 7.4359-2.0955s2.2308-1.2529 4.9573-3.8749 4.9573-5.2421 4.9573-5.8224c0-0.58035 2.6258-3.414 5.8351-6.2971 3.2093-2.883 6.4467-7.5851 7.1941-10.449 1.853-7.1 10.146-23.384 12.675-24.887 1.1312-0.67229 2.0567-2.8164 2.0567-4.7647s0.66923-3.8284 1.4872-4.178c3.4993-1.4956 8.4265-13.959 8.4163-21.289-0.02405-17.301-6.4892-27.872-18.827-30.782-9.4884-2.2382-17.429-3.4928-23.299-3.6812-2.9991-0.09628-5.4559-0.60595-5.4594-1.1326-0.00351-0.52669-5.5804-1.1432-12.393-1.37-16.144-0.53744-30.541-2.5116-34.199-4.6893-3.3778-2.0112-35.491-0.4134-40.179 1.999-2.4402 1.2559-4.4366 1.6907-4.4366 0.96625 0-2.8304-10.49 10.18-14.023 17.392-4.6606 9.5144-4.8305 16.863-0.46844 20.266 2.8638 2.2339 3.1065 2.2207 1.6576-0.09057-1.2893-2.0568-0.8652-2.4006 1.7644-1.4302 1.904 0.70263 4.613 1.2775 6.02 1.2775s3.8462 4.4522 5.4203 9.8938c1.5742 5.4416 3.8359 10.206 5.0262 10.588 1.1902 0.38156 4.1963-2.7835 6.6801-7.0335s5.0648-7.7272 5.7356-7.7272 0.85501-3.0034 0.40937-6.6742c-0.49592-4.0852 0.04313-6.6742 1.3896-6.6742 1.2099 0 2.1999 2.9732 2.1999 6.6071 0 7.391 5.2854 11.62 11.972 9.5788 2.2071-0.67365 3.8909-0.30674 3.8909 0.84781 0 1.1195 0.78825 2.0354 1.7516 2.0354 2.792 0 4.0173-7.3021 2.2306-13.293-1.1863-3.978-0.91021-5.7695 0.99772-6.4736 1.9245-0.71019 3.0827 2.2118 4.282 10.803 1.347 9.6488 2.3606 11.886 5.6098 12.38 3.2713 0.49748 3.445 0.25631 0.99146-1.3771-1.6359-1.0891-2.0575-1.9934-0.93695-2.0094 1.1206-0.01605 3.925 1.2422 6.2319 2.7961 5.9323 3.9959 9.185-0.1524 7.709-9.8317-0.61188-4.0125-0.58878-6.2175 0.0513-4.8999 0.6401 1.3175 1.9799 1.9105 2.9774 1.3176 0.99744-0.59282 1.8136 1.9564 1.8136 5.6649 0 8.2739 6.4252 13.109 16.219 12.206 5.2284-0.48247 6.724-1.5551 7.2606-5.2075 0.83712-5.698 6.2644-11.721 6.2644-6.9518 0 1.6623-0.82717 4.5125-1.8382 6.3336-1.011 1.8212-2.3157 4.7984-2.8993 6.6162-0.69267 2.1574-2.2921 2.9226-4.6063 2.2038-2.7572-0.85643-2.9302-0.68027-0.77851 0.79259 1.7919 1.2266 2.3698 3.8094 1.6404 7.3308-1.1643 5.6205 2.1702 12.111 6.2218 12.111 1.243 0 2.26-1.1714 2.26-2.6032 0-4.2052 7.9073-12.652 11.844-12.652 2.7966 0 3.5303-1.3065 3.2125-5.7207-0.22652-3.1464 0.0907-5.7207 0.70493-5.7207 0.61422 0 2.3442-2.6667 3.8444-5.9259 2.5976-5.6435 2.4553-6.1401-2.986-10.419-3.1425-2.4714-6.3829-4.5244-7.2008-4.5621s-1.4872-1.9488-1.4872-4.2468c0-4.0075-0.11118-4.0321-2.7197-0.60138-2.5482 3.3513-3.6067 3.416-16.781 1.0255-10.797-1.9592-14.712-2.0316-16.867-0.3119-2.2315 1.781-3.0048 1.5086-3.7768-1.3303-1.1604-4.2671-15.498-7.1373-21.143-4.2323-2.7682 1.4248-4.4724 1.004-7.0568-1.7423-4.4941-4.7756-10.762-4.2915-17.158 1.3251-4.6149 4.0527-5.3366 4.2032-6.475 1.3503-1.6867-4.2271-12.148-2.3792-18.374 3.2455-2.82 2.5477-5.7211 3.5589-7.9019 2.7541-3.0973-1.143-2.957-1.718 1.3863-5.6838 8.4727-7.7361 26.932-13.55 43.024-13.55 11.483 0 14.183 0.53701 13.339 2.6534-0.807 2.0236-0.42922 2.1514 1.5917 0.53849 2.3302-1.8597 11.756-1.4766 15.286 0.62125 2.1344 1.2686 20.231 3.419 31.147 3.7011 5.6786 0.14677 10.958 0.87594 11.732 1.6203 0.77409 0.7444 3.0713 1.3535 5.105 1.3535s4.1896 1.233 4.7909 2.74c0.60133 1.507 2.166 2.3441 3.4771 1.8603 2.6918-0.99333 9.8952 14.265 10.36 21.946 0.16385 2.705-1.372 7.196-3.4129 9.9798-2.0409 2.7839-3.7108 6.0287-3.7108 7.2108 0 1.182-1.3385 2.643-2.9744 3.2467s-2.9744 3.4254-2.9744 6.2704c0 2.8691-1.9869 7.0126-4.4615 9.3039-2.4538 2.2721-6.6923 6.7022-9.4188 9.8447s-5.9983 5.7288-7.2707 5.7473c-1.2724 0.01856-2.6108 0.67732-2.9744 1.4639-1.4801 3.2026-12.752 7.7338-15.569 6.2587-1.6162-0.84631-6.7308-2.1399-11.366-2.8746-12.288-1.9477-10.32-4.7976 2.4786-3.5891 10.17 0.96028 10.906 0.75309 10.906-3.0707 0-2.2552-0.85856-3.5902-1.9079-2.9665-1.0494 0.62367-2.7535-1.6855-3.787-5.1314l-1.8791-6.2654-0.31822 6.6742c-0.26368 5.5308-0.61014 6.0208-2.0224 2.8604-0.9373-2.0976-1.8071-2.9557-1.933-1.9069-0.12583 1.0488-1.4545-0.66742-2.9527-3.8138l-2.7239-5.7207-0.16105 5.6254c-0.17141 5.987-3.0202 4.888-4.6958-1.8116-0.84276-3.3694-0.98071-3.3008-1.1839 0.58927-0.28026 5.365-4.1958 3.6299-4.1958-1.8593 0-2.6098-0.94418-3.5569-2.8462-2.855-1.5654 0.5777-3.2796 0.02594-3.8093-1.2262-0.52967-1.2521-1.114 0.29782-1.2984 3.4442l-0.33539 5.7207-1.8608-6.1974c-1.0234-3.4086-2.3415-6.1974-2.9292-6.1974s-0.50197 1.7162 0.19032 3.8138c0.72205 2.1878 0.35633 3.8138-0.85783 3.8138-1.1641 0-2.1165-1.6656-2.1165-3.7013 0-4.7353-3.9121-7.2083-4.1269-2.6087-0.11063 2.3695-1.0139 1.6584-2.8849-2.2711l-2.7239-5.7207-0.25048 5.7207-0.2505 5.7207-2.6271-5.7207-2.6272-5.7207-0.68191 5.3646-0.68188 5.3647-5.5858-8.225-5.5858-8.225 1.2382 7.6276c1.0241 6.3091 0.83565 7.0112-1.0903 4.0618-1.6898-2.5878-2.7369-2.9304-3.8175-1.249-0.97734 1.5208-1.9328 0.61651-2.7805-2.6316-1.3592-5.208-5.1817-6.8666-5.1817-2.2483 0 4.0711 13.489 13.415 25.778 17.858 33.291 12.034 33.089 11.911 25.754 15.686-3.1962 1.645-5.2668 1.1843-10.41-2.3165-3.5313-2.4035-7.7589-4.6465-9.3948-4.9845-7.0982-1.4665-31.283-14.14-37.182-19.485-10.651-9.6504-12.71-15.46-13.064-36.865-0.25944-15.705 0.40355-20.736 3.5501-26.939 3.5311-6.9614 16.587-21.635 18.24-20.499 2.0413 1.4022 4.4763 0.08197 5.2759-2.8604 0.86365-3.1782 0.91779-3.1782 1.1369 0 0.26476 3.8411 7.2983 4.6 8.8369 0.95345 0.65156-1.5442 1.5826-1.7121 2.6439-0.47673 0.90097 1.0488 3.8689 1.876 6.5954 1.8382 4.4217-0.06127 12.433 1.0768 27.761 3.9438 2.7265 0.50998 9.865 1.3639 15.863 1.8976 17.54 1.5606 26.465 2.5808 31.231 3.5702 6.6661 1.3838 5.3854-1.5896-2.4274-5.6359-5.8118-3.0099-8.1422-3.246-14.904-1.5103-7.331 1.8818-8.783 1.5892-17.006-3.426-10.031-6.1179-18.651-20.725-18.685-31.665-0.01479-4.7316-0.87922-6.1974-3.6547-6.1974-4.678 0-6.2761-1.6028-4.939-4.9537 2.0814-5.2162 7.6496-2.5152 20.918 10.147 12.462 11.892 14.046 12.812 21.862 12.688 12.042-0.19014 17.243-1.2498 15.957-3.2514-0.61514-0.95715-1.3627-10.004-1.6612-20.103-0.64169-21.71-0.85333-23.354-3.4075-26.467-1.3894-1.6936-1.0526-2.3836 1.1632-2.3836 1.7152 0 4.0281 1.5017 5.1398 3.3371 1.1116 1.8354 2.0483 2.4554 2.0814 1.3778 0.03318-1.0776-1.3288-3.8665-3.0265-6.1974-2.0296-2.7866-2.2978-4.2381-0.78319-4.2381 1.4938 0 2.0362-2.6962 1.5431-7.6696-0.59088-5.9585-0.1457-7.4427 1.9954-6.6526 1.8217 0.67227 2.3744 0.06076 1.6303-1.8039-0.61908-1.5515-0.36705-3.2718 0.5601-3.8228 0.92712-0.55104 1.5284-7.0144 1.3361-14.363s0.36563-13.361 1.2398-13.361c0.87418 0 1.0295-2.1453 0.34522-4.7673-0.6843-2.622-0.40481-4.7673 0.62109-4.7673 2.5755 0 0.7958-20.066-2.6862-30.288-1.5661-4.5972-2.3792-8.8088-1.8069-9.3591 0.57225-0.55031-0.0672-2.3128-1.421-3.9167-2.0639-2.4452-1.901-2.7142 1.0087-1.6655 5.3974 1.9452 4.2882-3.8033-1.7767-9.2087-2.8858-2.5719-5.9006-4.6762-6.6996-4.6762s-2.535-2.5127-3.8578-5.5837-3.7623-6.0846-5.4212-6.6968c-2.1402-0.78981-2.4273-1.7987-0.98865-3.4741 1.1151-1.2986 2.9198-5.3644 4.0103-9.0352l1.9828-6.6742 0.17884 9.6517c0.1768 9.5411 5.9832 19.488 9.9869 17.108 0.90201-0.53611 2.7427 0.30299 4.0904 1.8646 1.3477 1.5616 3.6796 2.8394 5.1819 2.8394 1.5024 0 2.7943 1.5017 2.871 3.3371 0.11917 2.8536 0.38629 2.7845 1.8435-0.47672 0.9373-2.0976 1.7669-2.846 1.8435-1.6631 0.22778 3.515 6.2446 16.45 7.2169 15.515 0.49305-0.47415-0.4437-4.6429-2.0817-9.2639-2.6214-7.3955-2.6244-7.9591-0.02546-4.7059 3.2242 4.0357 9.4971 5.6012 16.122 4.0232 2.8943-0.68942 4.6303-3.0237 5.4771-7.3644 0.91224-4.6762 5.6468-10.474 17.922-21.947 9.6413-9.011 18.363-15.592 20.663-15.592 2.1891 0 4.5033-1.5853 5.1428-3.5228 1.887-5.7174 17.409-8.8702 50.66-10.29 2.7265-0.11644 5.6128-1.1321 6.4141-2.2571 1.0056-1.4118 1.4662-1.3591 1.4872 0.17031 0.01695 1.2377 2.2605 1.9803 5.0827 1.6824 2.7788-0.29333 8.2429 1.031 12.142 2.9429l7.0901 3.4762-1.1118-6.5887c-0.61149-3.6238-0.35915-6.5887 0.56078-6.5887s1.1862-1.7888 0.59168-3.975c-0.83914-3.0859-1.4919-3.4058-2.9186-1.4302-1.2225 1.6929-1.3858 0.94892-0.48795-2.2224 0.74236-2.622 1.4288-5.1963 1.5254-5.7207 0.09657-0.5244-1.01-5.5489-2.4592-11.165s-2.6245-12.481-2.6119-15.255c0.01259-2.7738-0.86749-6.667-1.9557-8.6515-2.2597-4.1208-2.7226-34.777-0.59948-39.695 0.77367-1.7922 0.4965-6.0827-0.61595-9.5345-2.4184-7.5042-6.2198-31.041-6.0952-37.74 0.1535-8.2561-3.2977-20.042-5.7258-19.554-1.2818 0.25772-7.4727-2.7351-13.758-6.6507-9.6282-5.9986-13.291-7.1732-23.266-7.4617-10.719-0.31009-18.197 1.4935-20.879 5.0358-2.9333 3.8731-16.246 5.6099-31.52 4.1121-3.6583-0.35871 6.8434-9.806 10.9-9.806 2.9996 0 14.821-5.2647 16.654-7.417 1.1739-1.3783 12.079-7.3175 21.762-11.853 6.5194-3.0532 12.905-3.2568 22.564-0.71968 4.1588 1.0924 4.168 1.0508 0.4059-1.8414-2.117-1.6275-5.017-2.9591-6.4444-2.9591-1.4275 0-2.5954-1.3605-2.5954-3.0234 0-2.4851 1.6331-2.1456 9.1728 1.9069 5.0451 2.7117 9.5703 4.9303 10.056 4.9303 2.2405 0-5.3477-5.6397-12.396-9.2132-4.3032-2.1816-6.6643-4.0045-5.2469-4.0508 1.4174-0.04636 5.2926 1.2662 8.6116 2.9167 8.334 4.1445 9.2608 2.1788 1.2876-2.731-7.018-4.3216-5.24-5.3312 3.6587-2.0776 5.3104 1.9416 5.377 1.8892 2.0684-1.6267-8.3318-8.8536-25.229-15.138-41.62-15.478-4.1541-0.08625-7.0651-0.91579-6.469-1.8434 0.59618-0.92765 5.1104-1.5563 10.032-1.397 4.9212 0.1593 8.9476-0.27437 8.9476-0.96371 0-2.4656-18.659-9.6284-29.553-11.345-25.919-4.0832-36.573-0.54776-25.393 8.4267 6.2153 4.9893 9.5035 15.925 7.4373 24.735-3.5744 15.241-29.636 59.323-33.102 55.991-1.0351-0.99544 2.8386-9.1191 5.1655-10.833 2.7134-1.9981 9.7385-20.464 11.607-30.51 1.0962-5.8931 1.2923-15.918 0.4476-22.883-1.433-11.815-1.516-11.966-1.7747-3.2245-0.16525 5.5859-1.0482 8.7086-2.259 7.989-1.0932-0.64976-1.8871-7.6136-1.7642-15.475 0.12288-7.8617-0.32114-14.818-0.98668-15.458-0.66556-0.64003-1.3136 2.1972-1.4401 6.305-0.23777 7.7201-0.59525 6.9782-2.7694-5.7477-0.76643-4.4861-1.8777-6.5666-2.7677-5.1818-0.93563 1.4559-2.4657-0.53761-4.1261-5.3759-1.4514-4.2294-3.6914-7.6898-4.9777-7.6898s-3.378-2.1936-4.6483-4.8748c-1.2703-2.6811-3.1371-4.383-4.1484-3.7819-1.0113 0.60109-3.0152-0.42317-4.4531-2.2761-4.1593-5.36-8.9897-8.4125-14.179-8.9603-2.6478-0.27952-6.874-2.3537-9.3917-4.6093-5.4033-4.841-7.7955-5.2012-7.7955-1.1737 0 2.3123-0.81315 2.509-3.8696 0.93587-2.9709-1.529-5.7036-1.0723-11.766 1.9665-6.0167 3.0159-12.058 4.0414-25.378 4.3081-15.646 0.31325-18.731-0.23064-29.379-5.179-16.408-7.6253-25.935-8.344-40.616-3.064-6.6554 2.3936-11.931 5.4526-11.931 6.9186 0 2.8568-1.9026 3.2696-6.778 1.4704-5.179-1.9112-3.6011-3.8257 5.2567-6.3779 4.6163-1.3301 9.5754-4.0413 11.02-6.0249 3.8035-5.2222 18.756-11.23 27.95-11.23 4.3578 0 8.4664-0.84497 9.1301-1.8777 0.66372-1.0327 3.1702-1.87 5.57-1.8607 6.7586 0.02639 11.905-1.0587 16.548-3.4893 11.749-6.1501 45.084-4.2108 59.262 3.4476 3.7828 2.0432 6.8778 3.2519 6.8778 2.686s1.9832 0.30682 4.407 1.9395c2.4238 1.6327 5.9931 2.9685 7.9316 2.9685s3.5307 1.0726 3.5381 2.3836c0.00745 1.311 3.1229 4.42 6.9233 6.9089 11.547 7.562 23.573 20.28 29.322 31.01l5.4518 10.175 23.264 0.13405c21.049 0.1213 24.35 0.6285 34.66 5.3249 6.2677 2.855 14.298 7.5488 17.846 10.431 3.5477 2.882 9.0206 6.4954 12.162 8.0298 13.188 6.4411 22.549 16.77 28.077 30.98 5.6264 14.462 7.8657 19.689 14.49 33.827 9.2298 19.699 10.924 24 10.699 27.173-0.1298 1.8354 0.45764 3.3371 1.3054 3.3371 1.924 0 5.0354 6.5011 10.35 21.626 3.1609 8.9956 4.3315 18.105 5.0009 38.918 0.5826 18.113 0.18505 27.173-1.1923 27.173-1.1364 0-2.0663 1.2872-2.0663 2.8604s0.9237 2.8604 2.0527 2.8604c1.2899 0 1.4119 1.24 0.32819 3.3371-2.4747 4.7888-3.0965 36.058-0.74488 37.455 1.0766 0.6399 1.4937 2.8692 0.92679 4.9539s-1.8216 3.3204-2.7882 2.7459c-0.96661-0.57451-1.8308 0.07872-1.9205 1.4516-0.43776 6.7016-2.28 13.705-5.5448 21.08-5.0812 11.477-2.5861 17.847 8.0723 20.607 19.345 5.0095 22.415 19.514 8.3489 39.447-2.4632 3.4905-5.0737 8.9528-5.8012 12.138-0.79772 3.4928-2.2976 5.4322-3.7784 4.8857-1.3506-0.49839-2.5725 0.08465-2.7155 1.2956-3.9909 33.814-15.558 89.799-20.445 98.951-0.97234 1.8212-1.7679 4.505-1.7679 5.964s-1.2811 3.6752-2.8469 4.9249-3.3848 5.0017-4.0423 8.3379c-3.3104 16.798-5.8491 22.589-12.283 28.022-8.2152 6.9366-13.212 7.1891-18.85 0.95279l-4.2869-4.7414-6.606 9.4334c-3.6333 5.1884-6.606 10.032-6.606 10.763 0 0.73143-5.3838 9.7551-11.964 20.053-13.122 20.534-31.616 54.635-31.643 58.345-0.02965 4.0699-16.347 40.558-18.137 40.558-0.93982 0-1.7088 0.99336-1.7088 2.2075 0 2.0023-13.286 19.907-19.333 26.056-1.3632 1.3859-2.4786 3.119-2.4786 3.8514 0 0.73236-4.3907 4.6762-9.7571 8.7641s-10.778 9.2669-12.026 11.509c-1.2478 2.2421-4.9694 5.0569-8.2703 6.2551-3.8899 1.412-5.4812 2.9883-4.5226 4.4799 0.92001 1.4315 0.64423 1.8052-0.72957 0.98872-2.1232-1.2619-10.058 1.978-12.445 5.0815-1.49 1.9374-14.356 3.9494-15.87 2.4819zm68.841-74.058c-0.09502-6.605 1.0591-9.2852 6.2385-14.487 3.4953-3.5106 7.4776-8.3916 8.8495-10.847 1.372-2.4552 6.5098-11.167 11.418-19.36 4.9077-8.1931 9.2451-15.755 9.6388-16.803 2.2364-5.9586 11.244-23.05 12.643-23.989 0.90627-0.60824 1.0759-2.539 0.37701-4.2905-0.69891-1.7516-0.48589-3.1846 0.47338-3.1846s3.3411-2.8517 5.293-6.3372c5.0574-9.031 5.749-41.14 0.98513-45.734-1.8194-1.7546-3.8997-5.7808-4.6229-8.9472-0.72314-3.1663-2.1243-5.2758-3.1137-4.6878-0.98936 0.58803-1.2179-0.38668-0.50793-2.166 0.74764-1.8736 0.0774-4.1223-1.5925-5.343-1.5859-1.1593-4.4838-6.1894-6.4397-11.178-1.956-4.9885-4.3465-8.6004-5.3123-8.0264-0.96578 0.574-2.325-1.1368-3.0205-3.8016-0.6955-2.6649-2.0601-4.8453-3.0325-4.8453-0.97236 0-1.7679-1.3378-1.7679-2.9729s-0.66923-2.6614-1.4872-2.2806-5.0274-2.572-9.3544-6.5616c-4.327-3.9897-6.949-7.254-5.8269-7.254 1.1222 0 3.9558 1.7162 6.2971 3.8138 2.3412 2.0976 6.9396 3.8138 10.219 3.8138 4.0141 0 6.685 1.2994 8.1752 3.9771 1.2173 2.1874 2.7119 3.4977 3.3212 2.9117 0.60932-0.58597 2.5485 1.7003 4.3093 5.0807 1.9512 3.7458 4.4705 5.9455 6.4509 5.6326 2.8939-0.45726 7.6144 5.123 16.791 19.849 1.9244 3.0882 2.1812 2.7692 1.9829-2.4623-0.1253-3.3055-0.87089-5.6302-1.6569-5.166-1.963 1.1593-4.216-8.1405-2.5864-10.676 0.72332-1.1255 2.2414-1.4959 3.3735-0.82303 1.3284 0.7895 1.5853-0.38298 0.72455-3.306-0.73359-2.4911-0.60611-3.6416 0.28328-2.5566 2.6414 3.2224 8.9394 2.1237 11.309-1.9727 1.2132-2.0976 2.9893-4.3615 3.947-5.0308 0.95767-0.66933 1.1146-2.3855 0.34868-3.8138-0.7659-1.4282 0.04077-0.8934 1.7926 1.1886 3.1558 3.7505 3.1958 3.7462 4.3441-0.47673 0.63745-2.3442 2.3934-4.2621 3.9021-4.2621s2.7431-1.3035 2.7431-2.8967c0-2.1411 1.299-2.5832 4.9797-1.6948 4.0304 0.97279 4.746 0.61618 3.7537-1.8706-0.8266-2.0715-0.14434-3.0725 2.0941-3.0725 2.4143 0 2.9778-1.0373 2.0654-3.8018-0.99173-3.0049-0.55613-3.544 2.0781-2.5719 2.7314 1.008 3.0743 0.44651 1.9001-3.1112-0.97832-2.9642-0.73645-3.9272 0.76263-3.0363 1.225 0.72805 2.3049-0.00929 2.4432-1.6681 0.13632-1.6351 0.47094-3.831 0.74359-4.8798 0.27264-1.0488 0.60726-3.7282 0.74358-5.9542 0.20664-3.3743 0.74246-3.6526 3.2222-1.6734 1.6359 1.3056 2.9609 1.6252 2.9445 0.71021-0.08138-4.5346-5.849-16.824-10.427-22.217-2.8338-3.3384-4.6412-6.5154-4.0166-7.0599 0.62463-0.5445 1.534 0.08265 2.0209 1.3936 1.2173 3.2777 3.8543 2.99 5.2772-0.57578 0.67714-1.697 0.34473-2.4624-0.7793-1.7944-1.0781 0.64076-1.9602-0.17276-1.9602-1.8079 0-1.6351-1.8172-4.7204-4.0381-6.8563-2.221-2.1359-3.4216-4.8428-2.668-6.0154 0.83296-1.2961 0.4726-1.5985-0.91912-0.77136-1.4031 0.83393-2.3126 0.02529-2.3496-2.089-0.05691-3.2555-0.17404-3.2618-2.0814-0.11254-4.3379 7.1622-7.8409 2.294-8.9877-12.49-0.50433-6.5018-0.05526-8.764 1.5503-7.8097 1.3584 0.80733 1.7171 0.49812 0.89895-0.77487-0.74873-1.165-2.6276-1.651-4.1752-1.0799s-5.7575-1.0813-9.3553-3.672c-9.4671-6.8171-18.51-10.881-24.211-10.881-6.5314 0-26.946 6.0761-26.946 8.02 0 0.83297-0.93125 1.5145-2.0694 1.5145-3.4083 0-12.443 9.0059-15.71 15.66-1.6796 3.4208-4.5927 6.5046-6.4735 6.8529-3.1845 0.58977-3.2084 0.13236-0.3481-6.6492 5.3267-12.629 28.599-28.837 43.781-30.491 7.3331-0.79882 25.914 5.424 32.435 10.862 2.4826 2.0707 5.4928 3.7282 6.6891 3.6835 4.5019-0.16826-15.995-15.316-23.329-17.24-12.31-3.2301-25.1-1.7577-33.181 3.8199-15.497 10.696-27.118 22.144-28.423 27.999-1.1195 5.0246-2.0509 5.7812-6.1821 5.0217-5.6563-1.0398-5.8065-0.31844-2.0778 9.9747 6.0428 16.681 7.698 28.648 5.5753 40.306-2.4217 13.301-1.4433 44.403 1.4855 47.219 1.1277 1.0845 2.0504 3.1718 2.0504 4.6385s3.5841 9.8214 7.9647 18.566c4.3806 8.7447 9.4812 22.836 11.335 31.315 3.2197 14.728 3.2059 16.031-0.3092 29.202-5.0474 18.913-11.746 31.818-21.051 40.556-4.3198 4.0566-7.8542 8.0942-7.8542 8.9726 0 0.87841-1.9259 4.1022-4.2799 7.1641-2.3539 3.0618-4.5558 7.9612-4.8931 10.887-2.277 19.754-2.3003 24.496-0.13296 27.075 1.8549 2.2065 1.8305 2.505-0.11284 1.3823-3.3032-1.9084-3.0746-0.24191 1.6653 12.141 3.6211 9.4601 3.9118 7.13 0.71385-5.7207-1.1442-4.598-1.0756-4.6359 1.9352-1.0657 1.7168 2.0358 3.1215 4.9165 3.1215 6.4015 0 1.7199 1.1815 2.2639 3.2548 1.4988 2.4464-0.9028 2.7504-0.59827 1.2237 1.2262-2.176 2.6003-1.0301 14.822 1.3897 14.822 0.79874 0 1.3998-3.647 1.3357-8.1044zm28.489-84.857c5.5e-4 -0.7866 1.8992-6.1498 4.2193-11.918 7.0011-17.407 7.6746-22.645 4.6751-36.358-3.0647-14.011-5.5438-20.226-12.295-30.822-4.9789-7.8148-6.1157-12.84-1.9808-8.7552 7.057 6.9709 18.42 30.565 21.995 45.67 1.259 5.3193-2.1549 26.75-4.5174 28.359-0.77018 0.52439-3.4337 4.1714-5.9189 8.1044-4.4095 6.9783-6.1791 8.6171-6.177 5.7207zm27.916-104.56c0.09514-2.2215 0.56501-2.6733 1.198-1.1521 0.5728 1.3766 0.50236 3.0213-0.15654 3.6549-0.65891 0.63365-1.1276-0.49263-1.0415-2.5028zm-44.853-31.432c-0.71886-1.1186-0.88176-2.4427-0.36198-2.9426 0.51976-0.49986 1.4734 0.41534 2.1192 2.0338 1.3408 3.3602 0.19799 3.9512-1.7572 0.90883zm1.2295-14.334c0.09514-2.2214 0.56501-2.6733 1.198-1.1521 0.5728 1.3766 0.50237 3.0213-0.15653 3.6549-0.65892 0.63365-1.1276-0.49263-1.0415-2.5028zm25.621-1.0819c0-0.89078-0.88552-1.6196-1.9678-1.6196-3.3496 0-11.914-8.1511-11.882-11.309 0.01939-1.9114 0.5569-2.2349 1.4872-0.89503 2.6904 3.8748 11.91 7.5136 22.037 8.6974 4.7689 0.55753 8.0118-0.78738 8.7882-3.6447 0.86366-3.1782 0.91779-3.1782 1.1369 0 0.30253 4.3892 1.2233 4.253 11.953-1.7669 10.503-5.8925 14.007-9.7372 12.655-13.885-0.74698-2.2928-0.54355-2.3844 0.9239-0.41571 1.5366 2.0615 2.4543 1.974 5.0027-0.47673 3.4613-3.3286 5.3871-3.8293 5.3871-1.4004 0 0.88046-2.1568 2.5459-4.7928 3.7009s-5.9822 4.4051-7.4359 7.2225c-4.8401 9.3802-17.026 15.981-30.9 16.737-6.8162 0.37135-12.393-0.05364-12.393-0.94443zm-12.865-25.336c-10.172-9.3728-12.122-15.488-3.9896-12.515 5.7626 2.107 6.298 0.77153 1.6646-4.1521-4.6083-4.897-2.4808-5.9142 5.5882-2.672 11.697 4.7 38.498 5.2505 51.802 1.064 11.96-3.7636 19.045-3.3422 15.372 0.91421-1.109 1.285-1.3548 3.0386-0.54633 3.8968 0.80847 0.85826 0.48637 1.0215-0.71581 0.36279-1.2022-0.6587-7.3703 3.4424-13.707 9.1135-12.203 10.922-15.914 12.176-36.135 12.213-9.5568 0.01733-11.101-0.63969-19.333-8.2249zm-13.706-11.752c-0.7057-1.7685-0.83695-3.6446-0.29165-4.169s1.5689 0.49354 2.2746 2.2621c0.7057 1.7685 0.83695 3.6446 0.29165 4.169s-1.5689-0.49355-2.2746-2.2621zm95.44-4.4237c-0.8625-3.1718-0.60444-3.9164 0.86701-2.5013 1.1523 1.1081 1.7049 3.1403 1.228 4.516-0.49503 1.4282-1.3939 0.56377-2.095-2.0148zm-66.951-7.1725c-5.7279-4.635-6.2272-5.8894-5.3439-13.426 0.95697-8.1648 5.8981-15.814 10.178-15.757 1.403 0.01888 1.4697 0.52491 0.18839 1.4302-3.8756 2.7382-6.9402 10.024-6.9402 16.501 0 7.8783 7.0361 13.463 17.89 14.201 15.356 1.0429 23.189-19.587 11.202-29.502-3.5306-2.9205-4.4591-4.5649-2.5775-4.5649 3.5508 0 10.814 8.4954 12.374 14.474 1.542 5.9082-0.40138 10.922-6.5113 16.797-7.3801 7.0972-21.588 7.026-30.46-0.15274zm-39.351-4.2378c-1.503-0.91549-2.0928-2.6602-1.3106-3.8772 1.0775-1.6766 2.0999-1.6717 4.2199 0.02029 5.2274 4.1721 2.8288 7.352-2.9092 3.8569zm11.969-3.9978c0-2.622 0.45008-3.6946 1.0002-2.3836s0.55008 3.4563 0 4.7673-1.0002 0.23836-1.0002-2.3836zm39.841-0.06621c-5.7556-2.2161-5.6397-4.4735 0.42597-8.2956 7.2395-4.5617 9.3226-3.844 8.6227 2.9709-0.69439 6.7618-2.5223 7.8374-9.0487 5.3246zm32.553-6.9258c-0.72708-0.69919-1.322-2.158-1.322-3.2417 0-1.1949 0.92358-1.0823 2.3464 0.28603 1.2906 1.2411 1.8854 2.6999 1.322 3.2417-0.56348 0.54189-1.6194 0.41317-2.3464-0.28603zm-32.515-17.212c1.9293-0.48348 4.6062-0.45169 5.9487 0.07065 1.3425 0.52236-0.23603 0.91793-3.5078 0.87907-3.2718-0.03887-4.3702-0.46624-2.4409-0.94972zm-42.823 308.98c-1.7688-1.701-7.2828 5.4986-7.2756 9.4999 0.0063 3.5368 0.61164 3.2012 4.0727-2.2582 2.2359-3.5269 3.6772-6.7856 3.203-7.2417zm44.272-170.36c-1.1673-2.0976-2.4537-3.8138-2.8585-3.8138-0.40483 0-0.26938 1.7162 0.30102 3.8138 0.57041 2.0976 1.8567 3.8138 2.8585 3.8138 1.0062 0 0.87153-1.7068-0.30104-3.8138zm-72.639-17.903c3.7634-4.944 5.915-18.038 3.5472-21.586-2.7271-4.0864-9.3326-4.2781-15.86-0.46044-6.4027 3.7444-6.5136 4.0165-3.4634 8.4932 1.7331 2.5437 3.1511 6.6931 3.1511 9.2208 0 2.5278 0.55899 7.2838 1.2422 10.569 1.2013 5.7765 1.348 5.8521 4.4615 2.3001 1.7707-2.02 4.8855-5.8616 6.9219-8.5368zm126.18-7.8405c0-1.5732-0.86431-2.8604-1.9207-2.8604-1.0564 0-1.407 1.2872-0.7793 2.8604 0.62776 1.5732 1.492 2.8604 1.9207 2.8604 0.4286 0 0.7793-1.2872 0.7793-2.8604zm6.8555-82.819c0.62747-0.97633 0.23396-2.3141-0.87442-2.9729-1.1084-0.65876-2.0152 0.14004-2.0152 1.7751 0 3.3495 1.1899 3.8427 2.8897 1.1978zm-4.7272-9.6663c1.0106 0 1.8375-0.96318 1.8375-2.1404 0-1.5074-0.8539-1.4589-2.8875 0.16417-1.5881 1.2675-3.8189 1.751-4.9573 1.0744-2.8479-1.6926-2.602 0.50621 0.40887 3.6551 2.0867 2.1824 2.58 2.1697 3.1198-0.08049 0.35262-1.47 1.468-2.6727 2.4786-2.6727zm6.0494 1.3984c-1.9584-1.8693-2.1861-1.6502-1.11 1.0675 0.74464 1.8806 1.8534 2.939 2.4639 2.3518 0.61052-0.58712 0.00127-2.1258-1.3539-3.4193zm-12.58-28.58c2.9025 1.0711 2.9453 0.86329 0.3715-1.8016-2.0472-2.1196-3.3257-2.3732-4.314-0.85565-1.0275 1.5776-1.9944 1.5895-3.6011 0.04432-4.4097-4.2407 5.7157-4.3346 11.427-0.10591 3.0121 2.2303 4.4068 2.7558 3.0993 1.1678-1.3075-1.5881-2.8849-5.8557-3.5054-9.4836-0.62045-3.6279-0.44296-5.6755 0.3944-4.5502 0.83738 1.1253 3.1834 2.6367 5.2134 3.3587 2.7761 0.98737 3.4058 0.59844 2.5409-1.5693-0.63251-1.5851-0.2857-2.882 0.77066-2.882 1.0564 0 1.9207 0.85811 1.9207 1.9069s0.99492 1.9069 2.211 1.9069c1.3363 0 0.89679-1.9288-1.1111-4.8757l-3.322-4.8757 6.564 3.2635c4.7292 2.3512 5.9288 2.5148 4.2914 0.58517-1.2499-1.4731-2.7165-5.6817-3.259-9.3525-1.351-9.1411-3.3478-13.348-6.3351-13.348-1.3857 0-3.6147-1.2691-4.9533-2.8203-1.764-2.044-3.4286-2.3083-6.0479-0.96028-1.9877 1.023-5.017 1.3422-6.732 0.70937-1.7149-0.63286-3.118-0.25772-3.118 0.83363 0 1.0913-2.4538 2.3834-5.453 2.8713-3.8953 0.63365-3.3593 0.82219 1.8765 0.66002 9.386-0.29069 11.624 1.7738 3.73 3.4411-3.3433 0.70616-6.9135 2.7186-7.9339 4.472s-2.3642 2.9735-2.9862 2.7113c-0.62202-0.26219-2.6925-0.41641-4.601-0.34269-2.9673 0.11461-2.8955 0.37149 0.49572 1.7729 3.2633 1.3486 2.7364 1.6746-2.9744 1.8405l-6.9402 0.20159 4.9573 2.7252 4.9573 2.7252-5.2674 0.06756c-7.9076 0.10145-5.2138 5.928 4.88 10.556 4.5754 2.0976 10.548 6.3359 13.272 9.4184 3.8878 4.399 5.0876 4.9345 5.5772 2.4893 0.40658-2.0303 1.7666-2.6936 3.9048-1.9046zm9.0852-8.0963c-0.62777-1.5732-2.0475-2.8604-3.1549-2.8604-1.1606 0-0.9679 1.2117 0.45494 2.8604 1.3577 1.5732 2.7774 2.8604 3.1549 2.8604 0.37752 0 0.17281-1.2872-0.45494-2.8604zm-25.503-27.65c0.67403-1.0488 0.33319-1.9069-0.75741-1.9069s-2.5344 0.85811-3.2084 1.9069-0.33319 1.9069 0.75741 1.9069 2.5344-0.85811 3.2084-1.9069zm-372.85-75.99c-1.1173-1.1311-4.8892 1.7356-4.8892 3.7158 0 1.0283 1.2485 0.76309 2.7744-0.58925 1.5259-1.3524 2.4776-2.7593 2.1148-3.1265zm-31.05-3.1966c-0.61051-0.58711-1.7193 0.47122-2.4639 2.3518-1.0761 2.7177-0.84832 2.9368 1.11 1.0675 1.3552-1.2935 1.9644-2.8322 1.3539-3.4193zm40.313-9.1367c4.8305-9.2134 3.9999-8.8907-3.1329 1.2172-5.4363 7.7038-6.2651 9.8583-3.0596 7.9531 1.1062-0.65746 3.8928-4.7841 6.1925-9.1704zm-14.749-70.426c5.1886-3.4086 12.576-9.1172 16.417-12.686 4.3994-4.0877 5.149-5.3061 2.0259-3.2931-14.23 9.1724-16.727 10.447-18.456 9.4187-1.0351-0.61517-0.51187-1.8558 1.1626-2.757 1.7269-0.92935 2.6261-3.1775 2.0777-5.1942-0.68256-2.51 0.34227-3.8849 3.4849-4.6752 3.8222-0.96121 4.0806-1.5497 1.827-4.1609-2.2284-2.5822-2.0087-3.4564 1.4551-5.7895 18.88-12.717 27.046-26.81 10.287-17.751-4.2826 2.3147-7.7866 4.9087-7.7866 5.7643 0 0.85566-1.1161 1.5558-2.4802 1.5558-3.1747 0-23.861 20.419-27.046 26.697-1.4698 2.8971 1.5496 0.75004 7.6971-5.4733 9.7175-9.8374 15.407-12.361 9.4602-4.1967-1.5723 2.1588-3.3346 3.4674-3.9162 2.908-0.58163-0.55934-1.5039 0.62451-2.0494 2.6308-0.79378 2.9191-0.15098 3.4647 3.2182 2.7315 3.357-0.73052 2.7033 0.50205-3.2257 6.0826-4.0897 3.8493-7.4359 7.2934-7.4359 7.6536s2.0077 0.17139 4.4615-0.41946c4.4233-1.0651 4.4291-1.039 0.68412 3.0389-5.2866 5.7565-2.8456 5.1313 8.138-2.0843zm2.5796-45.496c0-1.1625 4.2385-5.961 9.4188-10.663 6.8718-6.2378 7.8102-7.6209 3.4701-5.1146-6.4502 3.7247-16.855 13.804-16.855 16.328 0 0.8599 0.89231 1.5634 1.9829 1.5634 1.0906 0 1.9829-0.95114 1.9829-2.1137zm188.38-8.1408c0-0.39597-1.5615-1.8977-3.4701-3.3371-3.145-2.3719-3.2151-2.3045-0.74866 0.71997 2.5904 3.1764 4.2188 4.1866 4.2188 2.6171zm-5.9487-22.883c0-0.39597-1.5615-1.8977-3.4701-3.3371-3.145-2.3719-3.2151-2.3045-0.74866 0.71998 2.5904 3.1764 4.2188 4.1866 4.2188 2.6171zm-7.9316-6.9076c0-1.0488-0.94498-1.9069-2.0999-1.9069s-1.5484 0.85811-0.87442 1.9069 1.619 1.9069 2.0999 1.9069c0.48093 0 0.87442-0.8581 0.87442-1.9069zm-52.343-14.301c-2.0692-1.5062-4.4614-2.3231-5.316-1.8152-0.85457 0.50793-2.1142 0.05137-2.7993-1.0145-0.68501-1.0659-2.7544-1.8685-4.5986-1.7836-1.8442 0.08489 0.21617 1.7786 4.5786 3.7638 9.3928 4.2744 13.417 4.6946 8.1352 0.84955zm31.64-0.06108c-2.117-1.5398-4.7939-2.7693-5.9487-2.7321-1.1548 0.03716 0.13113 1.2939 2.8576 2.7928 6.4231 3.5311 7.9868 3.5004 3.0911-0.06064zm28.425-20.303c-6.9734-6.0981-13.366-11.09-14.206-11.094-0.8398-0.00358-8.8706-3.3389-17.846-7.4119-17.575-7.9752-28.415-11.244-26.283-7.9263 0.70103 1.0908 2.5604 1.9833 4.132 1.9833 1.5715 0 2.8573 0.90875 2.8573 2.0194s0.79882 1.5447 1.7751 0.9644c0.9763-0.58027 2.3085 0.28157 2.9603 1.9152 0.65188 1.6336 2.0838 2.4362 3.1822 1.7834 1.0983-0.65277 1.9969-0.1863 1.9969 1.0366s1.2646 1.7568 2.8102 1.1864c1.5456-0.57038 3.3513 0.31874 4.0125 1.9758s1.7409 2.4949 2.3992 1.8618 5.0268 1.3828 9.7076 4.4799c5.932 3.9249 8.8121 4.9132 9.5058 3.2618 0.58732-1.3982 1.0593-1.0016 1.1517 0.96787 0.08609 1.8354 1.0865 3.3371 2.2232 3.3371 1.1366 0 3.1443 0.86728 4.4615 1.9273 1.3172 1.06 5.518 4.4602 9.3351 7.5561 12.587 10.208 8.951 1.655-4.1759-9.8243zm-112.82-15.09c0-0.80891 6.5455-2.8712 14.546-4.5828 11.442-2.4479 17.472-2.7276 28.256-1.3107 7.5409 0.99073 14.083 1.4745 14.537 1.0751 2.0047-1.7621-2.182-2.6948-16.99-3.7848-20.641-1.5194-35.629 1.4675-44.475 8.8635-6.3646 5.3211-6.446 5.532-1.3274 3.4396 2.9991-1.226 5.453-2.891 5.453-3.6999zm51.556-13.172c0-1.0488-2.0077-1.8466-4.4615-1.7729-4.2571 0.12788-4.2798 0.20911-0.49573 1.7729 2.1812 0.90138 4.1889 1.6992 4.4615 1.7729 0.27265 0.0737 0.49572-0.72409 0.49572-1.7729zm83.778-16.518c-1.3632-0.529-3.594-0.529-4.9573 0-1.3632 0.52899-0.24786 0.96182 2.4786 0.96182 2.7265 0 3.8419-0.43283 2.4786-0.96182zm-106.58 649.61c-0.67403-1.0488-0.28054-1.9069 0.87442-1.9069s2.0999 0.8581 2.0999 1.9069-0.39349 1.9069-0.87442 1.9069c-0.48094 0-1.4259-0.85811-2.0999-1.9069zm4.8213-27.173c-2.6223-9.355-1.3341-23.506 4.3831-48.149 3.3049-14.245 5.0762-16.411 6.6834-8.1723 0.74797 3.8342 0.85458 7.7577 0.23688 8.7189-0.61769 0.96114-1.7095 12.816-2.4263 26.344-0.71676 13.528-1.6383 24.954-2.0478 25.391-0.40953 0.43699-0.8694-7.286-1.022-17.162l-0.27735-17.957-1.5605 15.255c-0.85829 8.3904-1.0829 17.186-0.49914 19.546 1.9386 7.8366-1.1588 4.4327-3.4703-3.8138zm7.4392-41.833c-0.63298-1.5212-1.1028-1.0694-1.198 1.1521-0.0861 2.0102 0.38254 3.1365 1.0415 2.5028 0.6589-0.63364 0.72934-2.2784 0.15653-3.6549zm1.9829-11.441c-0.63298-1.5212-1.1028-1.0694-1.198 1.1521-0.0861 2.0102 0.38254 3.1365 1.0415 2.5028 0.6589-0.63365 0.72933-2.2784 0.15653-3.6549zm-50.467 19.427c-1.3622-2.0976-1.7151-3.8138-0.7843-3.8138 0.93081 0 3.3074 1.7162 5.2814 3.8138 2.7592 2.932 2.9405 3.8138 0.7843 3.8138-1.5426 0-3.9192-1.7162-5.2814-3.8138zm25.904-0.79455c-0.6751-1.1411-0.42971-1.3695 0.54816-0.51017 2.1074 1.8519 6.4996-18.735 6.6749-31.286 0.06724-4.8151 1.4511-12.967 3.0752-18.116 1.6241-5.1485 2.9625-11.342 2.9744-13.764 0.01192-2.446 0.90284-3.8792 2.0044-3.2246 1.1975 0.71176 1.9829-1.8871 1.9829-6.5616 0-5.652 0.81261-7.7402 3.0121-7.7402 2.2724 0 2.6865-1.2478 1.6861-5.0808-1.0976-4.2057-0.76259-4.8729 1.9451-3.8737 2.6522 0.97872 3.2712-0.04449 3.2712-5.4072 0-4.2744 0.87684-6.4457 2.4786-6.1376 1.3632 0.2622 2.5988-0.81043 2.7456-2.3836s0.36993-4.097 0.49573-5.6085c0.16918-2.0327 0.98661-1.7845 3.14 0.95345 2.7442 3.4891 2.9239 3.3184 3.1309-2.9726 0.12079-3.6708 0.66968-5.6015 1.2198-4.2905 1.5576 3.7123 4.6355 2.8024 4.6355-1.3703 0-2.5534 0.95122-3.4029 2.9744-2.6563 2.3029 0.84985 3.0353-0.56273 3.2444-6.2573 0.16194-4.4109 0.614-5.6375 1.1294-3.0644 0.47265 2.3598 1.6673 4.2905 2.6548 4.2905 0.98748 0 1.2817-2.4702 0.65378-5.4894-1.4318-6.8848 2.5602-9.7752 5.0977-3.6909 1.6889 4.0497 1.873 3.8635 2.2362-2.2611 0.27493-4.637 0.65801-5.3646 1.255-2.3836 0.47264 2.3598 1.421 4.2905 2.1076 4.2905 0.68652 0 5.411-4.264 10.499-9.4756 9.1753-9.3984 13.693-10.911 9.3974-3.1453-2.86 5.1696-14.018 19.098-15.967 19.931-0.81795 0.34961-1.4872 1.3486-1.4872 2.2199s-2.9 4.5387-6.4444 8.1496c-26.038 26.526-44.389 62.259-52.21 101.66-2.3638 11.908-4.2976 17.321-6.1884 17.321-1.5126 0-3.3002-0.92961-3.9723-2.0658zm-29.091-8.4767c-1.8377-1.9528-3.6852-6.1643-4.1056-9.3589-0.42041-3.1946-1.7635-7.6036-2.9846-9.7978-3.4918-6.2745 0.25614-4.3796 7.6158 3.8504 6.9981 7.8256 7.1646 12.508 0.23019 6.4726-6.4244-5.5912-4.5568-0.7665 2.3597 6.0961 4.3329 4.2991 5.371 6.2882 3.2817 6.2882-1.6808 0-4.5596-1.5977-6.3972-3.5505zm-2.8331-23.714c-3.4857-3.4585-6.3377-6.9522-6.3377-7.7638 0-0.81158 1.4447-0.08628 3.2104 1.6118 1.7657 1.6981 3.7476 2.5708 4.4041 1.9394 0.65652-0.63138-0.11463-1.9256-1.7137-2.876-1.8706-1.1118-2.9531-5.0104-3.0354-10.933-0.07043-5.0627-0.88182-10.378-1.8031-11.811-1.1307-1.7594-0.93105-2.1642 0.61423-1.2458 3.2657 1.941 2.9287 0.84445-2.9471-9.589l-5.2364-9.298 6.3849 6.6742 6.3849 6.6742-5.1069-9.5345-5.1069-9.5345 4.8621 5.6462c2.6742 3.1054 5.545 4.9895 6.3796 4.1869 0.83462-0.80263 0.59213-2.0563-0.53886-2.7858-2.5001-1.6128-14.683-18.639-14.683-20.52 0-0.73908 1.9373 1.1318 4.3052 4.1574 6.927 8.8512 8.1769 9.756 6.6112 4.7856-1.0676-3.389-0.79693-4.155 1.075-3.0424 1.6383 0.97369 2.0065 0.71629 1.0669-0.74575-0.78916-1.228-2.4034-1.657-3.5871-0.95345-1.2806 0.76114-1.5822 0.39215-0.74462-0.91114 0.7742-1.2047-0.86828-5.0598-3.6499-8.567-2.7817-3.5072-4.5499-6.8649-3.9294-7.4616 0.62049-0.59671-0.27281-3.6903-1.9851-6.8746-1.9539-3.6337-2.3776-6.227-1.1376-6.9639 1.0866-0.64581 1.962-2.1962 1.9453-3.4453-0.02088-1.5612-0.55091-1.4815-1.6956 0.25476-1.2402 1.8812-3.5574 0.42099-9.0787-5.7207-7.7943-8.6702-7.613-7.053 0.46507 4.1483 3.9784 5.5166 3.3892 5.1859-3.3975-1.9069-18-18.812-23.358-29.706-27.92-56.763l-2.3365-13.858 6.3403-9.5018c3.4872-5.226 7.1396-9.5018 8.1165-9.5018 2.7693 0 2.1607 1.3115-3.1811 6.8544-6.0849 6.3141-6.5795 10.362-0.65496 5.3593 4.0188-3.3932 3.9942-3.2242-0.37288 2.5648-5.3089 7.0374-6.2646 7.6226-4.6716 2.8604 0.8884-2.6559 0.70897-2.7857-0.87906-0.6359-1.1915 1.613-1.3179 4.4148-0.31366 6.9548 0.92493 2.3395 1.2709 4.6487 0.76891 5.1314-0.50203 0.48277 0.58722 2.0727 2.4205 3.5332 3.0478 2.4279 3.2184 2.0654 1.9925-4.2314-0.96476-4.9554-0.52942-7.5344 1.5523-9.1959 2.4707-1.9718 2.7852-1.175 2.154 5.4566-0.40654 4.2711 0.04219 7.7657 0.99716 7.7657 0.95499 0 1.3927 1.7162 0.9726 3.8138-0.86134 4.3011 1.0201 4.9304 4.5607 1.5255 3.4052-3.2747 2.9361-0.30141-0.82293 5.2157-1.7613 2.5851-2.2818 4.7002-1.1567 4.7002s2.5058-1.0726 3.0682-2.3836 0.53777 0.34481-0.0547 3.6796c-1.2169 6.8496 10.055 33.028 14.221 33.028 1.3054 0 3.9935 1.7215 5.9735 3.8255s4.0439 3.3986 4.5864 2.8769c0.54252-0.52173 2.1839 0.00714 3.6475 1.1752 3.6053 2.8774 3.3508 0.6281-0.58188-5.1439-1.7836-2.6178-2.7872-5.1979-2.2302-5.7336 0.55697-0.53563 2.8936 1.8509 5.1924 5.3035 4.8608 7.3002 5.6272 5.7952 1.2213-2.3984-4.7881-8.9043-1.8754-6.5417 4.1746 3.3862 5.233 8.5873 9.5202 9.0052 4.7673 0.46475-1.2497-2.2456-1.8352-4.5031-1.3011-5.0167 0.5341-0.51361 1.5962 0.96043 2.3604 3.2756 1.1058 3.3504 1.7762 3.6716 3.2853 1.5739 1.3951-1.9393 1.6001-1.61 0.77591 1.2463-0.85681 2.9694-0.18817 3.8819 2.8445 3.8819 4.7418 0 4.8868-0.88175 1.0187-6.1926-2.4476-3.3605-2.4884-4.2134-0.24162-5.0426 1.4873-0.54887 3.7053-0.03528 4.9288 1.1413 1.6441 1.5811 2.2245 1.4471 2.2245-0.51347 0-4.1338 5.783 4.063 6.0422 8.5642 0.12079 2.0976 0.67153 2.7358 1.2239 1.4183 0.55234-1.3175 1.8204-1.9105 2.8178-1.3176 2.9955 1.7803 2.0493-1.4402-1.6565-5.6384-3.3497-3.7947-3.3398-3.8335 0.28604-1.1186 3.5105 2.6287 3.6592 2.5018 2.2735-1.9398-1.444-4.6287-1.3998-4.6531 1.6969-0.9385 3.0356 3.6412 3.304 3.6596 5.931 0.40529 1.5134-1.8747 3.521-3.1944 4.4615-2.9327 2.8971 0.80613 10.633-4.903 10.633-7.8472 0-2.3027 0.42779-2.3469 2.4786-0.25638 1.9829 2.0213 1.9829 2.7014 0 3.4006-1.3632 0.48071-2.4786 2.2327-2.4786 3.8933s-0.58714 2.4546-1.3047 1.7645c-1.9284-1.8544-6.5408 2.4298-5.4795 5.0896 0.50143 1.2566-2.2285 5.4864-6.0666 9.3995s-6.9783 7.5757-6.9783 8.139-3.1231 5.484-6.9402 10.935c-3.8171 5.4508-6.9402 11.252-6.9402 12.892s-0.7815 3.7964-1.7367 4.7927c-0.95519 0.99636-4.1403 8.8585-7.078 17.471-4.5913 13.461-5.2524 18.214-4.7078 33.852 0.34846 10.006 0.58551 18.19 0.52682 18.188-0.05872-0.00235-2.9587-2.834-6.4444-6.2925zm1.5939-11.827c0-1.5732-0.86431-2.8604-1.9207-2.8604-1.0564 0-1.407 1.2872-0.7793 2.8604 0.62777 1.5732 1.4921 2.8604 1.9207 2.8604 0.42863 0 0.7793-1.2872 0.7793-2.8604zm3.8287-58.433c-4.4165-7.9815-17.775-24.518-19.806-24.518-1.0846 0 2.5128 6.1413 7.9942 13.647 5.4814 7.5061 9.9662 14.972 9.9662 16.59 0 2.1281 0.59973 2.3659 2.1666 0.85912s1.4781-3.3279-0.32081-6.5788zm12.791-23.663c0.67714-1.697 0.34472-2.4624-0.77931-1.7944-1.0781 0.64076-1.9602 1.9725-1.9602 2.9594 0 2.743 1.4213 2.1385 2.7395-1.165zm-38.068-12.709c-1.4229-1.3683-2.3464-1.4809-2.3464-0.28603 0 2.5453 2.345 4.8004 3.6684 3.5278 0.56348-0.54186-0.03139-2.0006-1.3219-3.2417zm36.522-1.7947c-3.6014-4.9447-4.2722-3.3238-1.033 2.4966 1.179 2.1185 2.6084 3.4047 3.1766 2.8583 0.56818-0.54639-0.39642-2.9561-2.1436-5.3549zm5.0011-0.20753c-1.9584-1.8693-2.1861-1.6502-1.11 1.0675 0.74464 1.8806 1.8534 2.939 2.4639 2.3518 0.61051-0.58712 0.00127-2.1258-1.3539-3.4193zm-70.317-45.734c-0.55008-1.311-1.0002-0.23836-1.0002 2.3836 0 2.622 0.45008 3.6946 1.0002 2.3836 0.55007-1.311 0.55007-3.4563 0-4.7673zm171.2 98.259c-2.7265-0.47181-7.4585-3.4612-10.516-6.6431-4.5531-4.739-5.3221-6.8648-4.2524-11.754 2.2479-10.274 7.3623-18.832 13.143-21.994 3.061-1.6741 5.5712-3.6874 5.5781-4.474 0.00688-0.7866 1.7971-1.4302 3.9783-1.4302s3.9658 0.8581 3.9658 1.9069-1.351 1.9069-3.0023 1.9069c-4.3927 0-14.473 11.379-16.711 18.864-2.3718 7.931-0.22444 12.415 7.8751 16.443 3.2395 1.611 5.89 4.1942 5.89 5.7405s-0.22308 2.6945-0.49573 2.5517c-0.27265-0.14282-2.7265-0.64571-5.453-1.1175zm20.425-21.292c0.89166-5.6187 9.8095-17.054 14.151-18.146 6.4961-1.6337 6.176 0.47548-1.2076 7.9564-3.8628 3.9137-7.5692 8.6176-8.2363 10.453-1.6296 4.4834-5.4265 4.2709-4.707-0.26333zm-159.48-32.154c-2.4665-3.0245-2.3963-3.0919 0.74867-0.71998 1.9086 1.4394 3.4701 2.9411 3.4701 3.3371 0 1.5695-1.6283 0.55932-4.2188-2.6171zm170.49-11.918c-1.1406-3.1464-2.6557-5.7211-3.367-5.7216-1.1848-8e-4 -1.2338-11.353-0.17531-40.628 0.3174-8.778 0.99446-10.852 3.2684-10.013 2.2221 0.82002 2.6102-0.12227 1.7231-4.1837-1.0633-4.8677 1.4468-11.987 3.5096-9.9542 0.50138 0.49402 0.18019 16.104-0.71373 34.688-0.89393 18.584-1.1516 35.532-0.5725 37.661 1.6453 6.0503-1.3571 4.5388-3.6726-1.849zm1.72-26.194c-0.45577-2.8986-0.84087-0.97968-0.85576 4.2643-0.01487 5.244 0.35803 7.6156 0.8287 5.2702 0.47066-2.3454 0.48285-6.6359 0.02706-9.5345zm-95.28 26.829c-0.72707-0.69919-1.3219-2.158-1.3219-3.2417 0-1.1949 0.92358-1.0823 2.3464 0.28603 1.2906 1.2411 1.8854 2.6999 1.3219 3.2418-0.56348 0.54188-1.6194 0.41317-2.3464-0.28604zm-21.151-19.018c-2.7265-1.8292-5.4034-3.8258-5.9487-4.4367-2.1974-2.462-22.151-17.02-24.379-17.788-1.3145-0.4526-1.8417-1.3962-1.1714-2.097 1.0584-1.1066 12.857 3.7862 15.635 6.4835 11.329 11.002 24.431 14.131 42.425 10.131 6.4286-1.4291 12.024-2.2754 12.434-1.8808 1.114 1.0713-21.763 10.647-28.337 11.861-3.6979 0.68291-7.4423-0.11571-10.658-2.2731zm4.6352-17.968c-1.1586-1.1142-5.1294-2.2971-8.8239-2.6285s-10.223-2.6377-14.507-5.125c-9.1629-5.3196-25.578-20.742-23.847-22.406 0.65981-0.63454 2.0633 0.33031 3.1188 2.1441 1.0555 1.8138 3.8886 4.2913 6.2957 5.5056 4.2856 2.1618 4.3019 2.1268 0.78531-1.6858-1.9752-2.1414-2.7473-4.197-1.7157-4.568 3.3306-1.1978-9.5973-20.697-13.722-20.697-2.076 0-3.7744-0.85811-3.7744-1.9069s1.1702-1.9069 2.6005-1.9069 4.516-1.7162 6.8573-3.8138c2.3412-2.0976 5.0195-3.8138 5.9516-3.8138 0.93217 0 4.2201-2.5347 7.3064-5.6327 5.3115-5.3315 16.758-11.781 22.577-12.72 1.4632-0.23632 3.0914-0.84423 3.6182-1.3509 1.2785-1.2295 24.871 5.3242 32.717 9.0883 7.504 3.6 7.6132 3.6088 7.5599 0.60451-0.02328-1.311-3.7911-4.9363-8.3729-8.0563-7.6095-5.1817-9.6656-5.6555-23.756-5.4739-19.618 0.25274-25.97 2.7481-38.222 15.016-13.939 13.957-19.727 14.848-20.358 3.1324-0.23537-4.3678-0.15288-4.3864 5.1022-1.1552l5.3414 3.2844-4.9573-5.4329c-2.7265-2.9881-6.0726-6.6056-7.4359-8.0388-1.3632-1.4332-2.4406-3.6172-2.3941-4.8533s3.417 1.3995 7.49 5.8569c7.7042 8.4314 11.024 10.302 8.918 5.0239-0.9773-2.4492-0.35508-2.8136 3.0366-1.7784 5.2772 1.6107 5.8904-2.9379 0.92015-6.8259-2.9555-2.3119-3.1814-2.1965-1.9375 0.98969 1.1956 3.0625 0.95241 3.2431-1.6116 1.1967-2.4364-1.9445-3.0197-1.9395-3.0197 0.02582 0 1.6665-1.2105 1.3825-3.8321-0.89912-2.1076-1.8343-3.4055-4.4041-2.8841-5.7108 0.94993-2.3806-4.794-8.2993-6.9236-7.1342-0.62305 0.34086-1.494-0.42217-1.9354-1.6956-0.46043-1.3284 0.15238-1.7478 1.4376-0.98393 3.015 1.792 2.82 0.08848-0.74985-6.5504-1.944-3.6152-4.0251-5.1784-5.9487-4.4686-4.2058 1.5521-3.6839 4.7183 1.9986 12.125 5.5421 7.2239 6.6998 12.027 1.752 7.2694-4.4824-4.3106-10.505-17.811-8.9726-20.115 0.69953-1.0519 6.6257-4.5575 13.169-7.7901 12.521-6.1859 13.564-7.9769 1.9192-3.298-6.0048 2.4128-6.8765 2.4128-6.8765 0 0-1.5197 1.7846-2.763 3.9658-2.763s3.9658-0.894 3.9658-1.9866c0-2.8691 7.6584-10.353 9.1382-8.9301 1.4686 1.4124 6.725-3.2229 6.725-5.9302 0-4.4358 39.666-5.3026 51.948-1.1353 4.2345 1.4368 7.1642 1.78 6.5104 0.76276-4.1578-6.4695 20.985 6.6319 29.7 15.476 4.1585 4.2202 8.6929 7.2554 10.077 6.7448 1.3836-0.51057 8.422 4.5055 15.641 11.147 12.413 11.42 12.998 12.344 10.776 17.033-1.2918 2.7266-2.8748 4.9706-3.5177 4.9866-0.64288 0.01606-2.3697 0.76107-3.8374 1.6556-2.1372 1.3026-1.6974 3.1057 2.2089 9.0566 2.6826 4.0866 6.3373 8.5953 8.1215 10.019 3.3619 2.6832 4.4465 7.8429 1.6486 7.8429-0.87748 0-5.005-3.0034-9.1723-6.6742s-7.9109-6.6742-8.3191-6.6742-0.74222 2.8961-0.74222 6.4358c0 10.356-2.2683 18.354-5.2051 18.354-1.4996 0-2.7265-1.0011-2.7265-2.2247s-0.54794-1.6978-1.2176-1.0538c-0.66968 0.64404 0.56704 4.005 2.7483 7.4687 2.1813 3.4638 4.5705 8.2181 5.3094 10.565 1.2031 3.8214 0.73841 4.1997-4.4459 3.6192-8.5984-0.96276-10.105-2.5138-9.2064-9.4793 1.7542-13.601-13.771-28.9-39.6-39.022-14.219-5.5726-22.365-4.7944-37.065 3.541-18.672 10.587-21.335 17.446-12.529 32.262 3.174 5.3402 4.2476 8.8009 2.8677 9.2432-3.3374 1.0698 1.617 6.0569 6.0172 6.0569 1.9833 0 4.159 0.86043 4.8348 1.912 0.81161 1.2629 2.5971 1.2078 5.259-0.16214 2.2166-1.1408 6.1778-1.5558 8.8027-0.92228 2.8116 0.67863 4.7726 0.31457 4.7726-0.88606 0-1.3258 1.132-1.4288 3.2394-0.29462 4.1981 2.2593 15.815-0.28874 20.7-4.5404 4.6087-4.011 5.0335-14.017 0.91984-21.667-3.4493-6.4145-6.5321-7.764-17.736-7.764-11.292 0-17.038 5.7064-17.038 16.921 0 4.9104-0.77994 7.6304-1.9829 6.9154-4.1618-2.4736-2.0691-13.522 3.7481-19.788 6.6157-7.126 14.384-9.6981 23.43-7.758 10.659 2.2859 16.446 10.711 16.446 23.943 0 7.1037-7.1156 15.998-12.799 15.998-4.8673 0-3.5519 3.7906 1.3971 4.026 14.852 0.70653 19.331 0.6178 19.332-0.38286 0.00178-1.9049 9.8313-5.5501 14.966-5.5501 6.3974 0 6.17 3.8302-0.58902 9.9214-9.9658 8.9812-20.933 12.961-35.712 12.961-7.4595 0-14.511-0.91165-15.669-2.0259zm48.928-60.858c-2.3592-4.2393-9.1047-8.2566-12.198-7.2648-1.1218 0.35962 1.3814 2.9042 5.5629 5.6545 9.438 6.2079 9.1561 6.1395 6.6355 1.6103zm-84.66-20.286c-0.9975-2.4998-0.35947-2.815 3.3852-1.672 3.6959 1.1281 2.6016-0.821-5.4973-9.7912-5.5614-6.1598-10.721-13.553-11.466-16.43-0.74494-2.877-2.145-4.761-3.1111-4.1868-2.1554 1.2811 4.1556 13.525 11.008 21.356 5.9139 6.7588 6.7189 10.125 1.2919 5.4023-2.8501-2.4804-3.9668-2.6764-4.6138-0.80962-0.95822 2.7645-13.438-12.749-13.438-16.705 0-1.3539-0.89231-2.992-1.9829-3.6402-3.96-2.3536-1.8426 4.3172 4.1166 12.969 3.3547 4.8705 5.5951 9.6404 4.9786 10.6-1.3484 2.0981 5.2886 1.8543 6.9141-0.25403 0.62561-0.81139 2.7716 0.26124 4.7689 2.3836 4.3886 4.6634 5.2715 4.852 3.646 0.77846zm44.978-8.2317l6.9402-0.15069-9.4188-8.5772c-5.1803-4.7174-9.4188-9.3918-9.4188-10.388 0-0.99573-0.98366-3.8866-2.1859-6.4241-3.3889-7.1527-16.411-10.18-38.87-9.0358-1.3138 0.06691-2.9814 3.1594-3.7056 6.8721-1.5152 7.7672 3.7337 15.785 8.0687 12.326 1.7214-1.3739 3.0015 0.16063 4.7109 5.6474 1.291 4.1437 3.3665 8.1398 4.6124 8.8803 1.5454 0.9185 1.816 0.22044 0.85146-2.1967-1.3118-3.2876-1.1574-3.3216 2.1417-0.47236 3.8636 3.3368 11.511 4.7312 22.393 4.0831 3.8171-0.22734 10.063-0.48115 13.88-0.56402zm-56.367-5.4188c-3.426-3.1468-3.4792-3.0957-1.2085 1.1622 1.3063 2.4496 2.919 3.9309 3.5837 3.2917 0.66467-0.63919-0.40417-2.6434-2.3752-4.4539zm113.24-2.6958c-0.63298-1.5212-1.1028-1.0694-1.198 1.1521-0.0861 2.0102 0.38254 3.1365 1.0415 2.5028 0.6589-0.63366 0.72933-2.2784 0.15653-3.6549zm-119.34-7.2701c-1.6919-3.1464-3.453-5.7207-3.9136-5.7207-0.46057 0 0.0958 2.5743 1.2363 5.7207 1.1406 3.1464 2.9017 5.7207 3.9136 5.7207s0.45558-2.5743-1.2363-5.7207zm113.98-2.9064c-1.3796-1.5985-2.9166-2.5137-3.4157-2.0338-1.3751 1.3224 1.4189 4.9402 3.8153 4.9402 1.3149 0 1.1644-1.0941-0.3996-2.9064zm-58.601-7.5406c-2.1016-1.529-4.7134-2.7882-5.804-2.7982-1.0906-0.01003 0.23454 1.6202 2.9447 3.6227 2.7102 2.0026 5.322 3.2618 5.804 2.7982 0.48199-0.46349-0.84315-2.0937-2.9447-3.6227zm25.757-11.209c-0.68765-1.7233-2.0785-3.1333-3.0908-3.1333-1.0129 0-0.8453 1.7883 0.3728 3.9771 2.5249 4.537 4.6072 3.8905 2.718-0.84385zm-113.85 115.09c0-1.0488 0.94497-1.9069 2.0999-1.9069 1.155 0 1.5484 0.85811 0.87442 1.9069s-1.619 1.9069-2.0999 1.9069c-0.48093 0-0.87442-0.85811-0.87442-1.9069zm75.332-14.323c-2.6757-3.1004-0.57728-3.7479 3.6999-1.1416 1.6342 0.9958 1.917 2.099 0.72041 2.8102-1.0835 0.64394-3.0726-0.1069-4.4203-1.6685zm11.338-7.844c-3.0807-2.9626-1.3541-8.3437 2.6772-8.3437 2.5295 0 3.5561-0.81961 2.6983-2.1543-0.84037-1.3076-0.30187-1.8073 1.3702-1.2713 1.5151 0.48567 2.7546 3.3858 2.7546 6.4448 0 4.1459-1.0304 5.7036-4.0474 6.119-2.2261 0.30644-4.6799-0.0511-5.453-0.79453zm92.782-14.064c-0.67403-1.0488-0.12276-1.9069 1.225-1.9069s7.2102-3.1524 13.027-7.0054c9.5443-6.3214 11.267-6.8334 17.642-5.244 8.449 2.1063 9.5556 5.8153 1.4923 5.0019-3.4737-0.3504-10.091 1.6885-17.019 5.244-12.269 6.2961-14.493 6.8275-16.368 3.9104zm-158.87-8.1044c-0.80353-1.311-2.8288-4.5289-4.5007-7.1509-3.0272-4.7475-3.0225-4.7529 1.1462-1.3067 2.3023 1.9033 4.6376 5.1212 5.1895 7.1509 1.1456 4.2129 0.31062 4.8075-1.835 1.3067zm1.2492-8.0696c-2.3468-3.6517-3.7054-7.5132-3.019-8.5811 0.68632-1.0679 0.27487-1.9417-0.91432-1.9417s-2.6912 1.3258-3.3378 2.9463c-1.0187 2.5529-1.4907 2.4892-3.5347-0.47673-1.2975-1.8827-2.4855-5.5575-2.6401-8.1662-0.2164-3.652 0.14794-4.0907 1.5837-1.9069 1.0256 1.56 1.8784 2.0309 1.8952 1.0466 0.01669-0.98436 1.9047 0.145 4.1956 2.5097 2.2908 2.3647 4.6739 3.8103 5.2956 3.2124 0.6217-0.59787-0.69497-3.0144-2.926-5.37-4.75-5.0154-9.2085-12.835-7.9875-14.01 0.46834-0.45039 4.3329 4.1282 8.588 10.175 9.0356 12.84 10.122 14.907 6.7898 12.927-1.7665-1.0499-2.1158-0.32398-1.2487 2.5949 0.66213 2.229 1.7102 5.7688 2.329 7.8664 1.6857 5.7144-0.28698 4.6146-5.0685-2.8256zm1.2551-5.6582c-0.15726-2.5685-0.98443-3.9991-1.8381-3.1792-0.8537 0.81989-0.98132 2.9214-0.28358 4.67 1.7733 4.4441 2.4558 3.9646 2.1217-1.4907zm-8.5163-7.786c-1.5491-3.8822-2.4838-3.4969-2.1408 0.88242 0.1586 2.0249 0.9565 3.2846 1.7731 2.7993 0.81658-0.48533 0.98203-2.1421 0.36769-3.6817zm201.79 0.06108c-0.12578-4.6985 1.3087-9.8245 3.7355-13.348 2.3349-3.3904 3.945-4.5167 3.9527-2.765 0.00718 1.6256-0.89861 3.8324-2.0129 4.904-1.1143 1.0716-2.8011 5.7482-3.7485 10.393l-1.7226 8.4443-0.2042-7.6276zm-189.27-7.9454c-0.72708-0.69919-1.322-2.158-1.322-3.2418 0-1.1949 0.92358-1.0823 2.3464 0.28604 1.2906 1.2411 1.8854 2.6999 1.322 3.2417-0.56348 0.54189-1.6194 0.41317-2.3464-0.28603zm-7.9316-11.441c-0.72707-0.69919-1.2948-2.6299-1.2616-4.2905 0.04951-2.4796 0.43646-2.3972 2.1647 0.46084 2.1352 3.531 1.5162 6.1562-0.90302 3.8297zm200.93-8.8791c0-1.0597-0.52105-1.4257-1.1579-0.81322-1.9699 1.8944-32.552-9.2139-32.552-11.824 0-2.1404 10.847-1.1164 12.889 1.2168 2.7129 3.0997 19.123 5.5896 34.814 5.2823 11.421-0.2237 48.391-9.0086 51.442-12.224 1.8538-1.9536 7.9316-2.174 7.9316-0.28751 0 2.0572-3.8089 4.7924-6.9402 4.9838-3.4663 0.2118-21.455 6.1189-31.726 10.418-10.537 4.4106-34.701 6.6719-34.701 3.2473zm134.99-6.2173c0.09514-2.2214 0.56501-2.6733 1.198-1.1521 0.57281 1.3766 0.50237 3.0212-0.15653 3.6549-0.65892 0.63365-1.1276-0.49263-1.0415-2.5028zm-353.78-3.0304c-0.65396-2.4049-0.32593-5.2026 0.72894-6.217 2.7525-2.647 2.4475-9.2492-0.35038-7.5862-1.2476 0.7415-0.87143-1.1386 0.83591-4.178 1.7073-3.0394 3.6147-6.8133 4.2386-8.3865 1.1712-2.9532 3.3365-6.4405 9.9769-16.068 2.123-3.0781 2.7922-4.9619 1.4872-4.1862-4.5045 2.6772-2.351-0.86984 4.5673-7.523 5.6601-5.4431 6.9402-8.107 6.9402-14.442 0-6.0002-0.65394-7.5268-2.8734-6.7077-1.9205 0.70873-2.5077 0.144-1.7708-1.7029 1.2606-3.1591 3.9962-3.6562 4.9746-0.90391 0.36352 1.0226 3.5388-0.31005 7.0562-2.9615 5.6246-4.2399 6.3044-5.7279 5.6414-12.347-0.84378-8.4244 1.7043-10.212 3.6932-2.5913 1.2385 4.7454 1.4728 4.8188 6.0939 1.9069 7.6855-4.8428 8.2085-3.5266 1.316 3.3122-6.4599 6.4094-8.4753 14.168-5.4118 20.833 0.97148 2.1136 0.68616 3.3371-0.77821 3.3371-1.2716 0-1.7606-0.85811-1.0866-1.9069 0.67403-1.0488 0.28054-1.9069-0.87442-1.9069s-2.0999 1.7162-2.0999 3.8138-0.70641 3.8138-1.5698 3.8138c-0.86336 0-2.9693 2.9693-4.6798 6.5984-2.9579 6.2758-2.9332 6.5075 0.50449 4.7382 2.2338-1.1497 3.1925-3.1239 2.5098-5.1683-0.86879-2.6017-0.6842-2.7399 0.86447-0.64758 1.6106 2.1761 2.1443 2.0025 2.9314-0.95346 0.84295-3.1658 0.99078-3.1978 1.1923-0.25812 0.12651 1.8457-1.3315 4.5885-3.2401 6.0951-1.9085 1.5067-5.7008 4.5033-8.4273 6.6593-3.111 2.46-3.6649 3.4874-1.4872 2.7587 1.9422-0.64995 3.4701-0.2318 3.4701 0.9497 0 1.161-0.89231 2.1109-1.9829 2.1109-1.0906 0-1.9829 1.2524-1.9829 2.7832s-2.4538 5.1154-5.453 7.966c-2.9992 2.8505-3.8699 4.0501-1.935 2.6658 7.0657-5.0552 5.7446 0.02622-1.7529 6.7423-4.2426 3.8004-5.5076 5.5394-2.8111 3.8643 11.801-7.331 8.0228-2.3819-11.23 14.708l-6.0369 5.3589-1.189-4.3726zm22.476-36.99c0-0.5244-1.7846-0.03495-3.9658 1.0876-2.1812 1.1226-3.9658 2.4702-3.9658 2.9946 0 0.52439 1.7846 0.03495 3.9658-1.0876 2.1812-1.1226 3.9658-2.4702 3.9658-2.9946zm2.2358-7.9702c2.4665-3.0245 2.3964-3.0919-0.74864-0.71997-1.9086 1.4394-3.4701 2.9411-3.4701 3.3371 0 1.5695 1.6283 0.55931 4.2187-2.6171zm6.6872-8.1044c0.67403-1.0488 0.33319-1.9069-0.75741-1.9069s-2.5344 0.85811-3.2084 1.9069-0.33319 1.9069 0.75741 1.9069 2.5344-0.8581 3.2084-1.9069zm3.2273-9.0578c2.4665-3.0245 2.3964-3.0919-0.74865-0.71997-3.303 2.4911-4.3534 4.0571-2.7214 4.0571 0.41177 0 1.9733-1.5017 3.4701-3.3371zm6.3632-13.023c3.1271-6.3063 3.1181-6.5556-0.17003-4.7156-7.6326 4.2709-10.436 7.356-9.2908 10.225 1.7462 4.3762 5.7006 2.0732 9.4608-5.5098zm-6.6161 3.0121c0-1.0488 0.94497-1.9069 2.0999-1.9069 1.155 0 1.5484 0.8581 0.87442 1.9069s-1.619 1.9069-2.0999 1.9069c-0.48093 0-0.87442-0.85811-0.87442-1.9069zm347.17 67.536c0.09514-2.2214 0.56501-2.6733 1.198-1.1521 0.5728 1.3766 0.50237 3.0212-0.15653 3.6549-0.65892 0.63364-1.1276-0.49263-1.0415-2.5028zm-220.76-11.604c-12.046-8.1958-21.389-12.479-43.128-19.77-15.263-5.1192-27.751-8.5063-27.751-7.5268 0 1.0275-1.8874 1.1357-4.4615 0.25568-2.4538-0.83887-7.3615-1.2571-10.906-0.92939-3.5444 0.3277-6.4444-0.23552-6.4444-1.2516 0-2.71 8.5435-4.3159 18.791-3.5321 5.1607 0.39471 8.9822-0.12955 8.9997-1.2346 0.0167-1.0564 0.68813-0.92657 1.492 0.28845 1.5552 2.3505 24.87 8.9372 30.7 8.6731 1.9086-0.08644 3.4701 0.48247 3.4701 1.2642 0 0.78178 3.7923 3.0119 8.4274 4.9558 4.635 1.9439 8.8735 4.0895 9.4188 4.7681 0.5453 0.67852 2.8522 2.4711 5.1265 3.9835 7.1183 4.7338 23.286 18.968 22.445 19.761-0.4412 0.41618-7.722-3.9514-16.18-9.7057zm133.36 5.089c0-1.0488 0.89231-1.9069 1.9829-1.9069 1.0906 0 1.9829 0.85811 1.9829 1.9069s-0.89231 1.9069-1.9829 1.9069c-1.0906 0-1.9829-0.85811-1.9829-1.9069zm38.581-7.1053c-1.1134-3.5173-2.0039-3.9052-5.1946-2.2631-2.118 1.0901-5.3656 1.6537-7.217 1.2526-2.3119-0.50089-0.88206-1.8394 4.5655-4.2736 11.275-5.0384 46.464-5.9639 55.259-1.4534 3.4162 1.752 6.8805 3.009 7.6985 2.7934s1.4872 0.77745 1.4872 2.2069c0 3.0408-10.148 3.2943-12.317 0.30782-1.6203-2.2302-35.159-3.4566-38.447-1.4058-1.1986 0.74772-2.6992 2.6466-3.3347 4.2198-0.87912 2.1765-1.4766 1.8455-2.4991-1.3846zm-118.41-3.5756c-15.566-5.5212-33.375-15.349-42.742-23.588-3.6117-3.1768-6.9119-5.776-7.3337-5.776-0.42179 0-3.1739-2.1453-6.1159-4.7673-2.9419-2.622-6.5572-4.7673-8.0338-4.7673s-2.6848-0.6567-2.6848-1.4593c0-1.4348-16.136-7.5262-24.489-9.2449-2.3446-0.48237-12.159-1.4072-21.811-2.0552-12.208-0.81962-16.558-1.7111-14.293-2.9297 6.9228-3.7257 54.645-1.694 54.645 2.3265 0 0.88999 2.6769 2.1836 5.9487 2.8747 3.2718 0.69106 5.9487 2.1894 5.9487 3.3297s0.47675 1.6148 1.0594 1.0544c0.58267-0.56034 6.1998 3.8017 12.482 9.6934 19.355 18.151 19.433 18.199 52.39 32.472 5.1803 2.2435 9.4188 4.9157 9.4188 5.9383s-0.22307 1.8124-0.49572 1.7551c-0.27265-0.05731-6.5246-2.2425-13.893-4.856zm23.928-3.1858c1.3866-1.6067 4.9095-3.4977 7.8286-4.2023 2.9192-0.70459 10.139-3.479 16.044-6.1654 5.9049-2.6864 13.964-5.6753 17.91-6.642 3.9457-0.96667 10.297-2.5111 14.114-3.4321 3.8171-0.92098 16.161-2.1534 27.432-2.7388 11.27-0.58534 21.425-1.6188 22.565-2.2964 1.1755-0.69868 1.676-0.0852 1.156 1.4168-0.50445 1.457-2.6279 2.74-4.7188 2.8511-37.461 1.991-60.776 6.6906-80.143 16.154-5.9983 2.9311-14.012 5.9248-17.807 6.6526-6.0511 1.1603-6.5907 0.96347-4.3802-1.5979zm-274.12-8.2134c-1.4712-5.6372 0.10151-8.4324 13.934-24.764 5.0402-5.9508 7.9513-10.443 6.4692-9.9824-1.4821 0.46052-6.1762 5.2956-10.431 10.745-8.832 11.31-11.838 11.957-4.5201 0.97268 6.2206-9.3369 18.69-20.849 20.597-19.015 0.8027 0.77194 0.14684 2.215-1.4575 3.2067-1.8329 1.1331-2.18 2.3348-0.93403 3.2334 4.0223 2.9011 2.7486 6.4879-6.9418 19.548-5.4521 7.348-9.9129 14.11-9.9129 15.026 0 0.91659-1.2357 2.6528-2.746 3.8582-2.1948 1.7517-3.009 1.184-4.0563-2.8288zm66.289 3.011c0-1.0488 1.3911-1.9069 3.0914-1.9069s2.5399 0.85811 1.8659 1.9069c-0.67403 1.0488-2.0652 1.9069-3.0914 1.9069s-1.8659-0.85811-1.8659-1.9069zm249.85-28.4c0-4.5707 23.053-9.1794 44.144-8.8252 18.396 0.30892 23.275 1.3637 23.275 5.0325 0 1.0488-0.94898 1.3429-2.1088 0.65353-2.7838-1.6545-33.584-2.6957-33.583-1.1353 2e-4 0.66556-4.0522 1.1374-9.0054 1.0484-4.9532-0.08892-11.301 0.98372-14.107 2.3836-5.9443 2.9657-8.6141 3.2268-8.6141 0.84242zm81.299-0.20402c0-1.0488-0.66923-1.8053-1.4872-1.6811-5.29 0.80326-10.41-0.62688-10.41-2.9077 0-2.1839 1.2887-2.3015 6.9402-0.63351 3.8171 1.1266 6.9402 3.1916 6.9402 4.5888s-0.44615 2.5404-0.99145 2.5404-0.99146-0.85811-0.99146-1.9069zm-396.58-4.81c0-1.7905 9.423-10.282 10.384-9.358 0.48964 0.47085 8.1689-6.4171 17.065-15.306 8.8961-8.8894 16.175-15.501 16.175-14.693 0 2.9223-11.864 19.378-13.97 19.378-1.2578 0-1.6344 1.5931-0.9015 3.8138 0.72205 2.1878 0.35632 3.8138-0.85783 3.8138-1.1641 0-2.1165-0.93021-2.1165-2.0671 0-1.1369-3.3462 0.40617-7.4359 3.4291-9.7261 7.1891-18.342 12.352-18.342 10.99zm212.17-1.0233c0-1.1107-0.89862-1.4853-1.9969-0.83257-1.0983 0.65275-2.5303-0.14977-3.1821-1.7834-0.65186-1.6337-1.9292-2.5281-2.8385-1.9877-0.90931 0.54042-2.3774-0.10808-3.2623-1.4411-1.7519-2.6389-14.062-9.0868-18.61-9.7477-1.5553-0.22599-3.7383-0.95921-4.8511-1.6294-5.6362-3.3942-39.461-9.5632-53.097-9.6837-8.5041-0.07516-15.918-0.84667-16.476-1.7145-0.55773-0.86784 1.4925-1.6708 4.556-1.7843 21.837-0.80929 32.863-0.51972 33.768 0.88675 0.5777 0.89858 1.8175 0.46952 2.755-0.95345 1.2543-1.9037 1.7127-1.9575 1.735-0.20358 0.0167 1.311 1.5919 2.3879 3.5004 2.393 1.9085 0.00519 10.923 2.5758 20.032 5.7126 9.1091 3.1368 17.501 5.1452 18.648 4.4632 1.2174-0.72356 1.4992-0.32648 0.67665 0.95345-0.842 1.3102 0.63155 3.0878 3.6594 4.4145 2.788 1.2216 5.0691 2.9415 5.0691 3.8219 0 0.88044 1.3385 1.6008 2.9744 1.6008s2.9744 0.85811 2.9744 1.9069 1.3385 1.9069 2.9744 1.9069 2.9744 1.2872 2.9744 2.8604-0.44615 2.8604-0.99145 2.8604-0.99145-0.90876-0.99145-2.0195zm-206.22-14.236c0-1.5472 0.79584-2.5986 1.7686-2.3364 2.0271 0.54642 18.358-13.696 26.569-23.172 7.3031-8.4278 9.4583-6.0601 2.4858 2.7309-14.139 17.826-30.824 30.156-30.824 22.778zm48.278-2.4912c1.8073-1.9205 2.6947-4.0605 1.9719-4.7556-0.72277-0.69507 0.39067-3.0993 2.4743-5.3427 3.7745-4.0639 3.7702-4.0738-1.1688-2.6748-4.4627 1.264-4.6088 1.1466-1.464-1.1768 1.9213-1.4195 3.896-4.603 4.3883-7.0744 0.939-4.714 5.9235-9.8521 21.077-21.726 12.815-10.042 14.668-8.9033 2.7683 1.7011-5.453 4.8595-8.7035 8.1808-7.2235 7.3806 2.0649-1.1164 2.3615-0.4564 1.2748 2.8365-0.96485 2.9234-0.71651 3.8755 0.77902 2.9866 1.2812-0.7615 2.1953 0.06541 2.1953 1.9859 0 1.8099-0.50565 2.8044-1.1237 2.2101-1.0675-1.0266-14.74 10.983-14.74 12.947 0 0.5136 2.2308-0.47179 4.9573-2.1898 9.0289-5.6892 4.9182 0.03701-5.9437 8.2797-11.158 8.4671-15.837 10.578-10.223 4.6125zm19.995-24.926c-0.52166-0.50167-2.4888 0.63437-4.3714 2.5246-3.2704 3.2836-3.2281 3.3242 0.94849 0.91214 2.4042-1.3885 3.9445-2.935 3.4229-3.4367zm0.18986-5.5381c-0.61051-0.58712-2.2105-0.00122-3.5556 1.302-1.9438 1.8833-1.716 2.1023 1.11 1.0675 1.9556-0.7161 3.0561-1.7824 2.4456-2.3695zm-9.9736 30.152c1.3715-2.1342 8.9297-6.3499 8.9297-4.9808 0 0.48638-1.4022 2.2328-3.116 3.8809-3.429 3.2976-7.7516 4.1154-5.8137 1.0999zm-3.3175-31.799c1.1507-2.0676 5.4131-6.4873 9.472-9.8215s6.3965-6.0622 5.1945-6.0622-2.7368 0.85811-3.4109 1.9069c-0.67403 1.0488-2.2882 1.9062-3.5871 1.9054-1.2989-8.2e-4 0.98456-2.8655 5.0743-6.366 4.0897-3.5005 7.4359-7.0818 7.4359-7.9586 0-0.8767-2.1647 0.36168-4.8105 2.752-2.8795 2.6015-5.8006 3.7575-7.2772 2.8799-1.7261-1.0259-2.0865-0.51341-1.2005 1.7071 0.6964 1.7452 0.34175 3.1732-0.78811 3.1732s-1.5424 1.5509-0.91685 3.4464c0.79947 2.4223-0.78113 4.7785-5.3194 7.9296l-6.4568 4.4832 4.4615-4.7154c2.6934-2.8467 4.4615-7.1558 4.4615-10.873 0-4.9761 2.164-8.1896 11.276-16.745 14.786-13.883 24.416-17.413 24.416-8.9521 0 1.8404 1.1199 2.5386 2.9744 1.8542 6.1807-2.2808 2.4958 1.9139-8.0872 9.206-14.382 9.9098-18.238 14.227-8.7675 9.8168 6.3116-2.9394 5.9525-2.3538-3.9658 6.4661-5.9983 5.334-13.463 11.505-16.588 13.712-5.4284 3.8347-5.5889 3.8461-3.5903 0.2548zm34.059-35.018l4.9573-3.9876-4.9573 1.1717c-4.7527 1.1234-4.7996 1.0504-1.1362-1.7677 2.1016-1.6167 3.2385-3.4996 2.5265-4.1843-2.1099-2.0291-7.6143 3.486-6.4332 6.4457 0.59747 1.4973-0.92348 4.4116-3.3798 6.4763-3.7648 3.1645-3.8434 3.4462-0.50033 1.7937 2.1812-1.0782 6.1966-3.7547 8.9231-5.9479zm179.54 15.449c-0.62872-0.97832 1.9169-10.632 5.657-21.453 3.74-10.821 7.9591-24.547 9.3758-30.503 1.4166-5.9558 3.1371-10.495 3.8232-10.087 1.8097 1.0756-1.5843 22.808-5.1309 32.854-5.1593 14.614-1.6476 11.091 4.6846-4.6994 7.6786-19.148 9.614-35.084 5.5109-45.376l-3.0408-7.6276 1.188 10.097c1.6135 13.714-3.0343 12.807-7.7756-1.5159-1.9095-5.7684-3.0071-7.9137-2.4392-4.7673 0.56789 3.1464 1.4552 9.1532 1.9717 13.348 0.93331 7.58 0.92651 7.5889-1.0876 1.4302-2.7142-8.2995-3.911-7.843-2.4995 0.95345 2.0072 12.509-1.8693 4.9363-6.7517-13.189-2.5924-9.6242-7.7553-23.546-11.473-30.937-3.7178-7.3914-6.3116-13.87-5.764-14.396 0.54758-0.52659 1.6163-0.08285 2.375 0.9861 0.75866 1.069 4.2794 3.8914 7.8238 6.2721 5.6797 3.8149 6.4444 3.9386 6.4444 1.0428 0-3.0033 0.37027-2.9734 4.3067 0.34686 2.7847 2.3489 3.7394 2.6218 2.7015 0.77228-0.88285-1.5732 0.22599-1.1441 2.4641 0.95345 6.8371 6.4079 11.575 16.476 16.419 34.889 3.8354 14.579 4.2435 18.66 2.3779 23.773-1.2387 3.395-2.881 9.6052-3.6494 13.8-0.7685 4.1952-1.9798 8.0567-2.6919 8.5811-0.71204 0.5244-3.8583 6.1021-6.9917 12.395-3.1334 6.2928-6.2326 11.87-6.8871 12.395-0.65446 0.5244-2.268 3.3132-3.5857 6.1974-2.4361 5.3323-5.2913 6.6774-7.3557 3.4652zm3.8835-3.942c0.67403-1.0488 0.28054-1.9069-0.87442-1.9069-1.155 0-2.0999 0.8581-2.0999 1.9069s0.39349 1.9069 0.87442 1.9069 1.4259-0.85811 2.0999-1.9069zm13.057-95.545c-1.0449-2.5121-1.9564-3.5649-2.0255-2.3397-0.16791 2.976 2.142 8.6221 3.1362 7.666 0.434-0.41737-0.06583-2.8142-1.1107-5.3262zm-188.54 87.918c-1.7872-1.1107-2.0318-1.8602-0.61276-1.8777 1.2989-0.01606 2.9131 0.82891 3.5871 1.8777 1.5215 2.3675 0.83504 2.3675-2.9744 0zm168.55-0.72838c0-1.5732 0.8923-3.3907 1.9829-4.0389 1.0906-0.64819 1.9829 0.10864 1.9829 1.6818 0 1.5732-0.89231 3.3907-1.9829 4.0389-1.0906 0.6482-1.9829-0.10864-1.9829-1.6818zm-18.372-8.5854c-4.0662-11.01-4.344-14.521-0.62087-7.8484 2.6267 4.7074 6.0697 17.162 4.7442 17.162-0.37595 0-2.2315-4.1912-4.1234-9.3137zm-179.92 1.6861c1.1673-2.0976 2.9109-3.8138 3.8745-3.8138 0.96363 0 4.7245-3.0692 8.3576-6.8205 7.0352-7.2642 17.512-13.557 17.512-10.519 0 1.0051-1.7846 2.3721-3.9658 3.0378-2.1812 0.66576-3.9658 2.4904-3.9658 4.0548s-0.70708 2.4242-1.5713 1.9105c-0.86423-0.51365-5.8773 2.8681-11.14 7.5151-10.669 9.4204-12.197 10.198-9.1005 4.6352zm201.96-22.703c0.44088-14.318-0.1071-24.002-1.4837-26.22-1.7208-2.7729-1.92-1.8021-0.94134 4.5872 0.83474 5.4496 0.50883 8.1044-0.99495 8.1044-1.23 0-2.2363 1.7162-2.2363 3.8138 0 6.2285-3.1 4.3469-5.498-3.3371l-2.2316-7.1509 1.0119 9.0578c0.55657 4.9818 0.61381 9.0578 0.12723 9.0578-0.48661 0-2.3718-4.5051-4.1893-10.011-2.8983-8.7805-10.545-24.634-21.263-44.085-1.8097-3.2842-6.0481-8.9147-9.4188-12.512-6.7615-7.2165-6.8659-7.5007-4.2286-11.511 2.2165-3.3702-1.2617-8.2344-4.6032-6.4374-1.6444 0.88436-1.6652 0.59613-0.07698-1.0658 1.6874-1.7656 3.3598-1.7597 7.4359 0.02633 2.8924 1.2674 5.2726 3.2392 5.2893 4.3818s0.89534 0.79038 1.9526-0.78282c1.5827-2.3552 1.9275-2.3832 1.9526-0.1589 0.01669 1.4858 0.5724 2.1802 1.2349 1.543 0.66251-0.63714 3.5145 0.90139 6.3378 3.419 3.5586 3.1733 5.8562 4.0003 7.4902 2.6962 1.6864-1.346 2.7147-0.51033 3.6145 2.9374 0.69166 2.6502 2.1049 4.8185 3.1405 4.8185s1.3452-1.5017 0.68805-3.3371c-0.65716-1.8354 1.1748-0.3563 4.071 3.2869 4.4016 5.5368 7.606 13.163 10.037 23.887 0.23775 1.0488 2.012 6.9389 3.9427 13.089 4.9715 15.836 4.6122 54.606-0.50617 54.606-0.74445 4e-5 -1.039-10.216-0.6545-22.703zm-6.2724-26.4c-0.49876-1.8354-0.90684-0.33371-0.90684 3.3371 0 3.6708 0.40808 5.1725 0.90684 3.3371 0.49874-1.8354 0.49874-4.8388 0-6.6742zm-10.597-3.4193c-0.64581-1.6184-1.5995-2.5336-2.1192-2.0338-0.51978 0.49985-0.35688 1.824 0.36198 2.9426 1.9552 3.0424 3.098 2.4514 1.7572-0.90883zm9.2303-26.502c0-0.4625-0.89231-1.3713-1.9829-2.0194-1.0906-0.6482-1.9829-0.26979-1.9829 0.8409 0 1.1107 0.89231 2.0195 1.9829 2.0195s1.9829-0.37841 1.9829-0.84091zm-35.692-17.041c0-0.39599-1.5615-1.8977-3.4701-3.3371-3.145-2.3719-3.2151-2.3045-0.74867 0.71997 2.5904 3.1764 4.2188 4.1866 4.2188 2.6171zm-131.63 89.292c-0.70444-1.7654-0.355-2.4685 0.86618-1.7427 1.1259 0.66917 3.368 0.1624 4.9825-1.1261 1.6145-1.2886 3.518-1.7826 4.2299-1.0979 1.2315 1.1843-4.9343 6.7377-7.6226 6.8656-0.70127 0.03335-1.8064-1.2711-2.4559-2.8988zm-48.816-6.3416c0-0.92037 1.4845-2.8511 3.299-4.2905 2.9914-2.3731 3.0774-2.2171 0.92169 1.6734-2.4586 4.4373-4.2207 5.5299-4.2207 2.6171zm268.78-3.8914c-0.61398-0.95536-0.44155-2.0276 0.3832-2.3828s3.7303-3.1412 6.4568-6.1911 3.8419-4.9272 2.4786-4.1718c-4.0785 2.26-2.7311-1.2508 3.5382-9.2193 3.5607-4.5258 5.0952-7.9896 3.8638-8.7215-1.239-0.73641-0.46391-2.5882 1.9699-4.7064 2.207-1.9207 4.0127-4.5798 4.0127-5.9092 0-2.5837 9.4056-6.1631 19.387-7.3779 4.0939-0.49825 6.4616 0.18484 7.219 2.0827 0.61981 1.5533 1.9639 2.3267 2.9868 1.7188s2.4204-0.23331 3.1054 0.83259c0.68501 1.0659-0.14563 2.0453-1.8459 2.1764-9.5474 0.73617-20.511 5.9265-22.822 10.804-1.8652 3.9369-1.7354 4.4934 0.82768 3.5475 3.7743-1.3928 3.7913-0.54248 0.1253 6.2751-4.829 8.9802-29.107 25.256-31.686 21.243zm20.72-23.039c1.1673-2.0976 1.6763-3.8138 1.131-3.8138-0.54529 0-1.9466 1.7162-3.1139 3.8138s-1.6763 3.8138-1.131 3.8138 1.9466-1.7162 3.1139-3.8138zm9.9145-18.003c0-0.4625-0.8923-1.3713-1.9829-2.0194-1.0906-0.6482-1.9829-0.26979-1.9829 0.84091s0.89231 2.0194 1.9829 2.0194 1.9829-0.37841 1.9829-0.84091zm-148.29-35.433c-2.3231-3.5773-2.214-3.6823 1.5059-1.4482 3.9958 2.3998 5.3675 5.305 2.5046 5.305-0.82826 0-2.633-1.7356-4.0106-3.8568zm48.479-27.925c-0.72707-0.69919-1.3219-2.158-1.3219-3.2417 0-1.1949 0.92357-1.0823 2.3464 0.28603 1.2906 1.2411 1.8854 2.6999 1.3219 3.2417-0.56348 0.54189-1.6194 0.41317-2.3464-0.28603z"/>
 </g>
</svg>
